<?xml version="1.0" encoding="UTF-8"?>
<svg version="1.1" viewBox="0 0 1600 1600" width="1280" height="1280" xmlns="http://www.w3.org/2000/svg">
<path transform="translate(0)" d="m0 0h1600v1600h-1600v-1600z" fill="#000002"/>
<path transform="translate(764,279)" d="m0 0c1.94 0.0872 3.88 0.195 5.81 0.312 1.62 0.087 1.62 0.087 3.27 0.176 2.92 0.512 2.92 0.512 4.4 2.05 1.52 1.77 1.52 1.77 4.43 1.64 1.19-0.0619 2.37-0.124 3.59-0.188 14.6-0.39 28.8 3.19 43 6.23 6.36 1.36 12.7 2.51 19.1 3.32 2.46 0.47 4.17 1.34 6.39 2.46 1.68 0.343 3.37 0.63 5.06 0.875 4.94 0.835 9.38 2.21 14 4.03 5.37 2.03 10.8 3.75 16.3 5.53 7.76 2.53 15.4 5.18 22.9 8.42 2.71 1.14 5.45 2.16 8.22 3.15 9.21 3.31 18 7.19 26.7 11.6 6.2 3.14 12.5 6 18.8 8.86 12.3 5.61 24.2 11.6 35.6 19 1.94 1.25 3.89 2.41 5.91 3.52 3.82 2.22 7.37 4.72 11 7.28 2.1 1.46 4.22 2.83 6.41 4.16 5.23 3.23 10.1 6.9 15.1 10.6 0.604 0.448 1.21 0.896 1.83 1.36 12.8 9.47 25.3 19.1 37.3 29.5 3.16 2.73 6.35 5.33 9.73 7.78l3.12 2.38v2h2v2h2v2h2v2c0.536 0.206 1.07 0.413 1.62 0.625 3.29 1.91 5.97 4.42 8.38 7.38v2h2v2h2v2h2v2h2v2h2c1.77 1.61 3.38 3.25 5 5 0.675 0.728 1.35 1.46 2.05 2.21 4.41 4.82 8.61 9.76 12.7 14.9 2.92 3.68 5.89 7.32 8.86 11 4.55 5.59 9.07 11.2 13.4 16.9 0.41 0.529 0.82 1.06 1.24 1.6 21.2 27.4 39.9 58 54.8 89.4 0.464 0.982 0.929 1.96 1.41 2.98 5.9 12.5 11.7 25.1 16.6 38 0.452 1.16 0.905 2.32 1.37 3.51 8.04 20.7 14.6 41.9 19.9 63.4 0.502 2.03 1.02 4.07 1.54 6.1 1.72 6.69 3.11 13.4 4.27 20.2 1.28 7.49 1.28 7.49 2.97 14.9 1.89 7.51 2.88 15.2 3.97 22.8 0.204 1.36 0.204 1.36 0.412 2.76 4.71 32.3 3.88 65.4 3.21 97.9-0.0211 1.04-0.0423 2.08-0.0641 3.15-0.648 30.2-0.648 30.2-2.56 32.2-0.263 1.66-0.468 3.33-0.648 5-0.117 1.04-0.233 2.09-0.354 3.16-0.123 1.12-0.246 2.24-0.373 3.4-1.51 13.1-3.6 25.7-6.94 38.5-0.997 4.28-1.59 8.59-2.16 12.9-0.553 3.15-1.5 5.98-2.53 9.01-0.442 2.06-0.857 4.12-1.25 6.19-1.9 9.15-4.82 18-7.75 26.8-0.234 0.716-0.469 1.43-0.71 2.17-5 15.2-10.6 30.1-16.2 45.1-0.369 1-0.738 2.01-1.12 3.05-1.69 4.54-3.45 8.58-6.01 12.7-1.9 4.07-3.66 8.21-5.42 12.3-2.31 5.26-4.91 9.93-8.25 14.6-2.06 3.18-3.16 6.47-4.33 10.1h-2c-0.186 1.09-0.371 2.19-0.562 3.31-1.51 5.98-5.03 10.6-8.44 15.7-1.44 2.23-2.88 4.45-4.31 6.69-0.377 0.583-0.753 1.17-1.14 1.77-2.04 3.16-4.04 6.33-5.99 9.54-6.66 10.9-14.1 20.8-22.2 30.6-4.93 5.98-9.97 12.1-13.8 18.9-1.87 2.94-4.09 5.06-6.59 7.49-2.73 3.05-5.36 6.18-8.01 9.3-3.81 4.44-7.8 8.62-12 12.7-2.97 2.9-5.78 5.87-8.5 9-4.96 5.71-10.4 10.7-16 15.7-2.04 1.87-3.99 3.77-5.91 5.76-4.51 4.57-9.55 8.5-14.6 12.5-1.29 1.03-2.58 2.07-3.87 3.1-3.16 2.54-6.33 5.07-9.5 7.59-1.48 1.18-2.95 2.37-4.42 3.57-2.3 1.81-4.7 3.23-7.21 4.74-0.724 0.585-1.45 1.17-2.2 1.77-3.29 2.61-6.71 4.98-10.2 7.35-0.7 0.479-1.4 0.957-2.12 1.45-2.17 1.48-4.33 2.95-6.5 4.42-0.66 0.447-1.32 0.895-2 1.36-12.9 8.76-26.1 16.8-39.9 24.2-5.03 2.71-9.98 5.49-14.9 8.42-14 8.09-29.2 15-44.6 20.1-3.05 1.07-5.79 2.46-8.64 3.97-4.5 2.12-9.32 3.47-14.1 4.97-1.56 0.518-3.13 1.04-4.69 1.56l-2.18 0.727c-1.41 0.471-2.82 0.945-4.23 1.42-5.66 1.91-11.4 3.64-17.1 5.32-2.98 0.884-2.98 0.884-5.82 2.96-2.24 0.527-2.24 0.527-4.88 0.938-7.51 1.26-15 2.83-22.3 5-5.2 1.43-10.4 2.5-15.7 3.56-1.1 0.222-2.21 0.444-3.34 0.673-7.77 1.53-15.5 2.65-23.4 3.37-3.41 0.344-3.41 0.344-6.45 1.48-3.38 1.11-6.3 1.33-9.85 1.48-6.82 0.376-13.5 1.1-20.3 2-1.91 0.248-1.91 0.248-3.85 0.5-1.23 0.172-2.47 0.344-3.74 0.521-7.06 0.773-14.2 0.644-21.3 0.647-1.56 0.00322-3.12 0.00659-4.67 0.0101-3.26 0.00596-6.52 0.00784-9.78 0.00725-4.12-1.01e-4 -8.25 0.0135-12.4 0.0308-3.22 0.0113-6.44 0.0131-9.66 0.0126-1.52 0.00116-3.03 0.00547-4.55 0.0133-11.1 0.0522-21.9-0.856-33-2.24-1.78-0.193-3.56-0.382-5.34-0.562-6.68-0.698-13.2-1.46-19.8-2.93-5.13-0.907-10.3-1.33-15.5-1.81-6.23-0.596-6.23-0.596-7.33-1.7-1.39-0.202-2.79-0.347-4.18-0.465-0.845-0.078-1.69-0.156-2.56-0.236-1.79-0.157-3.58-0.311-5.38-0.461-0.846-0.0793-1.69-0.159-2.56-0.24-0.779-0.067-1.56-0.134-2.36-0.203-1.96-0.395-1.96-0.395-3.96-2.39-2.26-0.354-2.26-0.354-4.88-0.438-15.7-1.16-15.7-1.16-20.1-5.56-2.43-0.346-4.84-0.442-7.3-0.559-3.32-0.542-5.71-1.91-8.7-3.44-2.6-0.884-5.18-1.72-7.81-2.5-1.42-0.434-2.85-0.869-4.27-1.3-0.678-0.206-1.36-0.412-2.05-0.624-14.8-4.53-14.8-4.53-20.9-7.57 0.33-1.32 0.66-2.64 1-4 3.01-0.846 5.12-0.983 8.24-0.533 6.62 0.89 13.3 0.656 20 0.631 1.47-0.00187 2.94-0.00329 4.4-0.00429 3.84-0.00379 7.68-0.0136 11.5-0.0247 3.93-0.0103 7.86-0.0148 11.8-0.0198 7.69-0.0107 15.4-0.0277 23.1-0.0488v-2c0.843 0.0116 1.69 0.0232 2.55 0.0352l3.32 0.0273c1.09 0.0116 2.18 0.0232 3.3 0.0352 2.77 0.0998 2.77 0.0998 4.82-1.1 2.06-0.0202 4.13 0.00793 6.19 0.0625 5.1 0.0451 9.05-0.301 13.8-2.06 3.03-1.01 5.51-1.27 8.69-1.5 9.07-0.655 9.07-0.655 17.9-2.56 3.38-0.938 3.38-0.938 6.08-0.875 3.97-0.0753 7.55-0.973 11.4-2 7.64-2.01 7.64-2.01 10.7-2.57 2.25-0.389 2.25-0.389 4.06-1.46 3.27-1.55 6.72-2.04 10.3-2.66 0.72-0.134 1.44-0.268 2.18-0.406 2.96-0.539 5.74-0.969 8.76-0.969 0.241-0.647 0.482-1.29 0.73-1.96 1.27-2.04 1.27-2.04 3.26-2.58 0.767-0.0284 1.53-0.0567 2.32-0.0859 3.65-0.245 6.31-0.915 9.69-2.38 0.909-0.125 1.82-0.25 2.75-0.379 3.57-0.684 6.25-1.92 9.5-3.56 4.91-2.35 9.36-3.91 14.7-4.74 2.61-0.418 4.52-0.769 6.34-2.76 2.35-2.17 4.62-2.65 7.69-3.56 5.27-1.62 10.1-3.47 15-6.03 2.57-1.26 5.2-2.18 7.92-3.06 2.26-0.923 2.26-0.923 4.85-2.81 4.43-2.9 9.16-4.67 14.1-6.63 2.82-1.31 4.12-2.23 6.14-4.46 1.89-0.962 3.78-1.92 5.7-2.84 3.37-1.7 6.56-3.69 9.79-5.65 2.4-1.44 4.82-2.8 7.27-4.14 2.61-1.43 5.02-2.89 7.5-4.56 2.75-1.81 2.75-1.81 5.44-2.88 2.49-1.01 3.44-2.05 5.31-3.94 1.29-0.928 2.61-1.82 3.94-2.69 0.799-0.525 1.6-1.05 2.42-1.59 1.31-0.853 1.31-0.853 2.64-1.72 22-14.5 42-30.7 61.4-48.6 4.06-3.73 8.18-7.41 12.4-10.9 3.94-3.26 7.27-6.75 10.6-10.6 2.09-2.42 4.37-4.62 6.62-6.88 0.825-0.99 1.65-1.98 2.5-3 2.37-2.85 4.88-5.38 7.5-8 2.37-2.64 4.68-5.32 7-8 1.17-1.33 2.33-2.67 3.5-4 0.874-1 0.874-1 1.77-2.02 1.11-1.26 2.22-2.52 3.34-3.77 23.2-26 41.9-56.3 58.5-86.8 1.69-3.11 3.4-6.2 5.19-9.25 1.77-3.01 1.77-3.01 2.88-5.94 0.875-2.19 0.875-2.19 2.88-4.19 0.652-1.48 1.25-2.98 1.81-4.5 1.37-3.54 2.86-6.89 4.62-10.2 2.01-3.91 3.52-7.84 4.94-12 1.75-5.11 3.81-9.8 6.31-14.6 2.34-4.53 4.01-8.47 4.82-13.5 0.506-2.27 1.27-4.05 2.28-6.13 2.7-5.92 4.48-12.1 6.33-18.3 0.688-2.3 1.38-4.59 2.07-6.89 0.449-1.51 0.449-1.51 0.907-3.05 0.898-2.81 0.898-2.81 1.98-5.47 1.21-3.07 1.48-6.07 1.92-9.34 0.483-2.27 1.01-4.53 1.53-6.79 0.43-2.03 0.707-4.09 0.969-6.15 0.5-3.06 0.5-3.06 2.5-5.06 0.388-2.27 0.388-2.27 0.5-4.81 0.173-2.85 0.425-5 1.5-7.66 1.43-3.6 1.44-7.07 1.66-10.9 0.344-2.62 0.344-2.62 1.34-4.5 1.48-3.14 1.36-6.11 1.5-9.56 0.189-4.77 0.746-8.18 2.5-12.6 0.269-2.59 0.46-5.1 0.562-7.69 0.0729-1.43 0.147-2.85 0.223-4.28 0.035-0.689 0.0699-1.38 0.106-2.09 0.557-9.96 0.557-9.96 1.61-13.7 0.575-2.52 0.713-4.89 0.815-7.48 0.0432-1.05 0.0864-2.1 0.131-3.19 0.0417-1.13 0.0834-2.26 0.126-3.42 0.0453-1.16 0.0907-2.33 0.137-3.53 0.0945-2.46 0.187-4.92 0.277-7.38 0.14-3.77 0.29-7.54 0.441-11.3 0.0905-2.39 0.18-4.77 0.27-7.16 0.0458-1.13 0.0915-2.26 0.139-3.43 0.0369-1.05 0.0738-2.1 0.112-3.18 0.0347-0.923 0.0695-1.85 0.105-2.8 0.0611-2.5 0.0611-2.5-1.05-5.35-0.0481-1.79-0.0374-3.59 0.00781-5.38 0.028-1.62 0.028-1.62 0.0566-3.26 0.02-1.15 0.04-2.3 0.0605-3.48 0.0906-8.67-0.256-16.8-2.06-25.3-1.08-5.14-1.2-9.91-1.05-15.1-0.0298-3.12-0.809-5.6-2.02-8.46-0.928-2.78-0.989-4.67-0.938-7.69 0.0602-4.65-0.932-8.83-2.06-13.3-1.37-5.51-2-10.3-2-16-0.66-0.99-1.32-1.98-2-3-0.262-1.9-0.517-3.8-0.718-5.71-0.512-4.16-1.48-8.21-2.41-12.3-0.215-0.945-0.43-1.89-0.652-2.86-2.41-10.3-5.38-20.4-8.44-30.6-0.672-2.23-1.33-4.46-1.97-6.7-1.57-5.34-3.31-10.2-5.94-15.1-1.15-2.4-1.67-4.89-2.24-7.48-1.4-5.26-3.61-10.3-5.62-15.3-0.514-1.31-0.514-1.31-1.04-2.64-2.19-5.53-4.49-11-6.81-16.5-1.17-2.92-2.18-5.86-3.15-8.86h-2c-0.346-0.909-0.346-0.909-0.699-1.84-3.42-8.79-7.58-17-12.3-25.2-0.502-0.868-1-1.74-1.52-2.63-1.76-3.04-3.53-6.08-5.29-9.12-0.887-1.53-0.887-1.53-1.79-3.09-3.97-6.83-8.13-13.5-12.4-20.2-1.16-1.85-2.31-3.7-3.44-5.56-0.741-1.21-0.741-1.21-1.5-2.44-1.07-2-1.07-2-1.07-4h-2c-1.16-1.48-1.16-1.48-2.5-3.62-2.75-4.27-5.62-8.43-8.56-12.6-0.411-0.582-0.822-1.16-1.25-1.76-2.06-2.88-4.17-5.62-6.5-8.29-2.19-2.76-2.19-2.76-2.19-5.76h-2v-2h-2c-1.04-1.57-2-3.18-2.94-4.81-3.47-5.65-7.59-9.86-12.4-14.4-3.39-3.46-6.04-7.23-8.81-11.2-3.92-5.31-8.76-9.62-13.8-13.9-3.27-2.8-6.09-5.83-8.94-9.06-4.94-5.54-10.4-10.1-16.2-14.6-1.3-1.07-2.59-2.16-3.88-3.25-0.739-0.626-0.739-0.626-1.49-1.27-1.36-1.24-2.68-2.54-3.97-3.84-9.63-9.56-20.6-17.4-31.7-25.2-2.55-1.82-5.06-3.69-7.57-5.55-12.9-9.41-26.7-17.6-40.4-25.9-0.722-0.437-1.44-0.875-2.19-1.33-13.1-7.91-26.4-15.4-40.8-20.7v-2c-0.541-0.17-1.08-0.34-1.64-0.516-5.73-1.85-11.2-4.03-16.7-6.48-0.793-0.343-1.59-0.686-2.4-1.04-1.14-0.507-1.14-0.507-2.31-1.02-0.681-0.3-1.36-0.601-2.06-0.91-2.02-1.12-3.39-2.24-4.85-4.03 0.312-2.19 0.312-2.19 1-4z" fill="#FBFCFE"/>
<path transform="translate(564,557)" d="m0 0c1.35 0.127 2.71 0.202 4.07 0.246 1.22 0.0493 1.22 0.0493 2.47 0.0996 1.7 0.0604 3.4 0.118 5.1 0.172 4.6 0.191 8.79 0.683 13.2 1.91 2.47 0.66 4.94 1.17 7.45 1.68 9.79 2.01 19.2 4.09 28.6 7.71 3.15 1.19 6.31 2.09 9.55 2.98 7.11 2.14 13.3 5.57 19.7 9.17 2.92 1.59 5.93 3.01 8.93 4.45 21 10.5 41.1 26.4 55.9 44.6 0.804 0.804 1.61 1.61 2.44 2.44 6.07 6.07 11.4 12.7 16.6 19.6 1.11 1.44 1.11 1.44 2.24 2.91 11.1 14.6 19.1 31 26.3 47.8 0.501 1.17 1 2.33 1.52 3.53 2.73 6.49 5.05 12.9 6.92 19.7 0.339 1.13 0.678 2.25 1.03 3.41 5.77 20.4 8.18 41.2 8.16 62.3 3.93e-4 0.767 7.86e-4 1.53 0.00119 2.32-0.0225 36.8-0.0225 36.8-3.19 40-0.32 1.56-0.588 3.13-0.832 4.71-0.156 0.973-0.313 1.95-0.474 2.95-0.251 1.56-0.251 1.56-0.507 3.16-2.15 12.7-5.75 23.6-11.3 35.3-1.56 3.27-3.01 6.58-4.43 9.91-2.66 6.24-5.5 12.3-8.67 18.3-0.329 0.628-0.659 1.26-0.998 1.9-2.38 4.41-2.38 4.41-4.24 6.26-1.95 1.96-3.11 4.24-4.44 6.64-1.75 3.04-3.78 5.85-5.83 8.69-0.439 0.609-0.878 1.22-1.33 1.85-19.3 26.6-43.5 47-71.9 63.3-1 0.579-2.01 1.16-3.04 1.75-4.97 2.79-9.94 5.19-15.3 7.19-1.51 0.593-3.01 1.21-4.47 1.9-6.44 3.02-13.1 5.12-19.9 7.14-1.93 0.574-3.86 1.16-5.78 1.75-7.86 2.35-15.6 4.2-23.7 5.67-2.73 0.305-2.73 0.305-3.84 1.6-39.6 7.92-86.3 4.7-123-11.8-2.96-1.3-5.95-2.41-8.98-3.52-7.24-2.76-14.1-6.18-20.9-9.75-1.55-0.802-3.11-1.58-4.67-2.36-14-7.2-26.4-17.2-38.1-27.6-0.793-0.682-1.59-1.36-2.4-2.07-3.69-3.18-7.2-6.45-10.6-9.93-0.874-0.841-0.874-0.841-1.77-1.7-9.04-8.77-17.2-18.9-24.2-29.3v-2h-2c-0.33-1.32-0.66-2.64-1-4h-2c-11.8-22.3-11.8-22.3-16.1-31.4-0.518-1.09-1.04-2.18-1.57-3.31-1.49-3.72-2.41-7.34-3.3-11.3h-2c-0.315-1.03-0.629-2.05-0.953-3.11-0.432-1.4-0.864-2.8-1.3-4.2-0.225-0.733-0.451-1.47-0.683-2.22-1.28-4.11-2.69-8.1-4.32-12.1-2.05-5.41-2.31-10.7-2.48-16.4-0.0529-3.15-0.0529-3.15-2.27-5.97-1.14-7.22-1.15-14.4-1.13-21.7-9.57e-4 -1.19-0.00191-2.39-0.0029-3.62-6.77e-4 -2.51 0.00115-5.02 0.00534-7.53 0.00537-3.84 3.28e-5 -7.68-0.00635-11.5 6.61e-4 -2.45 0.00194-4.89 0.00391-7.34-0.00202-1.14-0.00405-2.29-0.00613-3.47 0.00315-1.07 0.0063-2.14 0.00955-3.25 7.96e-4 -0.937 0.00159-1.87 0.00241-2.84 0.138-2.98 0.585-5.81 1.13-8.75 1.44-8.29 1.44-8.29 2.5-16.6 0.5-3.38 0.5-3.38 2.5-5.38 0.235-1.88 0.464-3.76 0.656-5.65 0.621-4.25 2.01-8.28 3.34-12.4 0.308-0.949 0.616-1.9 0.934-2.88 5.56-16.3 13.2-31.4 22.1-46.1 0.503-0.861 1.01-1.72 1.52-2.61 5.01-8.53 10.7-16.5 16.7-24.3 0.424-0.556 0.849-1.11 1.29-1.68 2.03-2.62 4.08-5.07 6.46-7.38 1.07-1.24 2.13-2.5 3.19-3.75 3.05-3.53 6.31-6.55 9.92-9.51 2.01-1.74 2.01-1.74 3.77-4.14 2.39-2.92 5.04-5.18 8-7.47 0.593-0.461 1.19-0.921 1.8-1.4 12.4-9.52 25.3-18.8 39.5-25.4 2.36-1.1 4.51-2.29 6.72-3.67 3.55-1.88 6.09-2.3 10.1-2.62v-3c1.18-0.338 2.36-0.675 3.58-1.02 1.56-0.45 3.11-0.901 4.67-1.35 0.777-0.222 1.55-0.443 2.36-0.672 0.754-0.219 1.51-0.438 2.29-0.664 1.04-0.298 1.04-0.298 2.09-0.603 2.05-0.643 2.05-0.643 3.99-1.7 2.18-1.06 4.13-1.55 6.5-2.02 0.835-0.17 1.67-0.339 2.53-0.514 0.864-0.17 1.73-0.339 2.62-0.514 1.72-0.343 3.44-0.688 5.16-1.04 0.76-0.15 1.52-0.299 2.3-0.453 1.98-0.388 1.98-0.388 3.91-1.45 3.21-0.527 6.42-0.961 9.64-1.4 3.31-0.493 3.31-0.493 6.16-1.6 3.37-1.05 6.31-1.41 9.82-1.64 1.27-0.0838 2.53-0.168 3.84-0.254 1.31-0.0786 2.63-0.157 3.98-0.238 1.92-0.13 1.92-0.13 3.87-0.262 24.8-1.57 24.8-1.57 28.7 0.387z" fill="#F9FCFD"/>
<path transform="translate(924,323)" d="m0 0v2h-6v2h3v2c0.743-0.0825 1.49-0.165 2.25-0.25 3.53 0.321 4.52 1.6 6.75 4.25 0.33-1.32 0.66-2.64 1-4 3 3.63 3 3.63 3 7h9c-1.32 0.33-2.64 0.66-4 1v3h9v-2h2v2c5.44-0.495 5.44-0.495 11-1-0.33 0.99-0.66 1.98-1 3h-4c-0.33 0.66-0.66 1.32-1 2h2v4h10v4h8v3h-8v6h12v-2c3.3 0.33 6.6 0.66 10 1v1h-6v9h2v2c-4.62 0.33-9.24 0.66-14 1-0.33 4.29-0.66 8.58-1 13h6v-3c2.31 0.33 4.62 0.66 7 1v3h4v2c-1.98 0.33-3.96 0.66-6 1-0.33 2.31-0.66 4.62-1 7h7v-6h7v8h6v2h5v8c1.24-0.186 2.48-0.371 3.75-0.562 3.01-0.385 5.35-0.525 8.25 0.562v2h2v4h4v2h3v2h2c0.33 1.32 0.66 2.64 1 4h5v2h3v2h-3v6h6v-2h3v-4h2v2h3v4h3v4h4v2h2v4h2v6h7c0.33 1.32 0.66 2.64 1 4h2v3h-3v9h6v-9c0.99 0.33 1.98 0.66 3 1v8h8v4h4v4h3c1.07 5.58 0.826 10.4 0 16h3v5h-5v2h-2v6h4v3h6v8h4v5h-6v6h8v-6h2v11h6v-11h5v4h6v-11h2v7c1.65 0.33 3.3 0.66 5 1v2h2c1.35 2.71 1.07 5.01 1 8 1.98 0.33 3.96 0.66 6 1-0.33 0.66-0.66 1.32-1 2-4.29-0.33-8.58-0.66-13-1v7h4v7h6v-3h6v4h-4v2h-5v6h3v4h8v-6h4v-9c2 2 2 2 2.2 3.95-0.0651 2.02-0.13 4.04-0.195 6.05h6c0.34 1.56 0.671 3.12 1 4.69 0.186 0.87 0.371 1.74 0.562 2.64 0.438 2.68 0.438 2.68 0.438 7.68h-12v6c0.797-0.0116 1.59-0.0232 2.41-0.0352 10.5-0.0896 10.5-0.0896 15.6 1.04v-3h2v8h4v8h4v4c-4.83 0.0833-9.24-0.0474-14-1v10h6v-3h15c0.33 1.98 0.66 3.96 1 6 1.32 0.33 2.64 0.66 4 1-0.33 3.63-0.66 7.26-1 11h-9v14c1.28-0.186 2.56-0.371 3.88-0.562 3.88-0.562 3.88-0.562 6.12 0.562v3h8v1h-10v18h6v-7h2v-3h4v-6h1v15c1.32 0.33 2.64 0.66 4 1h-3v6h3c1.35 2.71 1.07 5.01 1 8h4v5h3v11c1.32 0.33 2.64 0.66 4 1 0.33 5.28 0.66 10.6 1 16h-4v13c2.31-0.33 4.62-0.66 7-1 1.1 3.29 1.1 5.74 1.06 9.19-0.00902 1.09-0.018 2.17-0.0273 3.29-0.0174 1.25-0.0174 1.25-0.0352 2.52h4v2h-6v-2h-6v12h12v-2h2c0.33-1.32 0.66-2.64 1-4v18c-0.33-1.32-0.66-2.64-1-4h-12v11h4v11h-4v6h4v7h6v-29h1v16h2v7h5c-1.32 0.33-2.64 0.66-4 1v10h-6v6h6v10h-6v14h6v35h-2v3h-6v8c0.99 0.33 1.98 0.66 3 1h-3v81h6v-77c2.64 0.33 5.28 0.66 8 1v-4h5v9h-4c0.0722 0.762 0.144 1.52 0.219 2.31 1.49 16.6 1.49 16.6-0.219 22.7h-4v10h-4c0.0668 7.23 0.157 14.5 0.262 21.7 0.0333 2.46 0.0613 4.92 0.084 7.38 0.0334 3.53 0.0857 7.06 0.142 10.6 0.00639 1.11 0.0128 2.21 0.0194 3.35 0.0198 1.02 0.0396 2.04 0.06 3.09 0.0167 1.35 0.0167 1.35 0.0336 2.73 0.132 0.718 0.263 1.44 0.399 2.18l3 2v3c3.63 0.33 7.26 0.66 11 1-0.458-3.47-0.891-6.67-2-10h-2v-2h-4v-3c2.31-0.33 4.62-0.66 7-1v6h5v2h3c-0.875 4.88-0.875 4.88-2 6-0.231 1.35-0.412 2.7-0.562 4.06-0.144 1.3-0.289 2.6-0.438 3.94h-4v3h-4v-2h-2c-0.66-2.31-1.32-4.62-2-7h-4v-3h-12v-9h-6v15c2.31 0.33 4.62 0.66 7 1 0.33 1.65 0.66 3.3 1 5h4v3c-1.98-0.33-3.96-0.66-6-1v-3h-6v5h-2v-5h-6v4h-2v6c2.97 0.33 5.94 0.66 9 1v4c-2.31 0.33-4.62 0.66-7 1 0.0116 0.771 0.0232 1.54 0.0352 2.34 0.0135 1.5 0.0135 1.5 0.0273 3.04 0.0174 1.5 0.0174 1.5 0.0352 3.02-0.0977 2.6-0.0977 2.6-1.1 4.6h-9v8h2v9h2v10h-3v3h-5v2h-2v14h-2v-3h-6v11h2v4c-1.32 0.33-2.64 0.66-4 1v-3h-6v2h-6v7h2v3h-4v4h-13v6h5v10h-14v6h12v3h2v2c-6.93-0.33-13.9-0.66-21-1v6h13v2h2v2h-8v4h-2v-4h-8c0.33 3.3 0.66 6.6 1 10 2.31 0.66 4.62 1.32 7 2v-2c1.32 0.33 2.64 0.66 4 1-0.33 0.66-0.66 1.32-1 2h-3v2h-4v5h-4v4h-2v-4h-12v6h11v4h6c0.33-1.32 0.66-2.64 1-4v4h10v-8h5v4h3v4c0.66 0.33 1.32 0.66 2 1-4 2.83-7.43 1.76-12 1-0.33 2.97-0.66 5.94-1 9h2v4h-2v3h-6v13h-11c-0.33 1.32-0.66 2.64-1 4h-3v2h-3v9c-2.64 0.33-5.28 0.66-8 1v6h2v2h-4v2c-0.66 0.33-1.32 0.66-2 1-0.656 2.53-0.656 2.53-1 5h-3v3h-2c-0.33-3.63-0.66-7.26-1-11h-2v-6h-6c-0.33 3.96-0.66 7.92-1 12h4c-0.33 3.63-0.66 7.26-1 11 1.32 0.33 2.64 0.66 4 1-1.94 0.562-1.94 0.562-4 1-1-1-1-1-1.06-4.56 0.0206-1.13 0.0412-2.27 0.0625-3.44h-6c0.0309 1.7 0.0309 1.7 0.0625 3.44-0.0625 3.56-0.0625 3.56-1.06 4.56-2.33 0.0409-4.67 0.0424-7 0v6h6v7h-1v-5h-6v5c-2.31 0.33-4.62 0.66-7 1-0.0748 0.626-0.15 1.25-0.227 1.9-0.403 2.51-0.838 4.74-1.77 7.1-3.06 1.31-3.06 1.31-6 2-0.969 2.03-0.969 2.03-1 4h-4c0.949 3.35 1.9 6.69 3 10h-3c-2-3-2-3-2-7-0.99-0.33-1.98-0.66-3-1v-2h-7c0.33 3.3 0.66 6.6 1 10-2.31-0.33-4.62-0.66-7-1v-2h-6v-20h-6v15h-4v6h-2v-6h-6c-0.33 3.96-0.66 7.92-1 12h3v3c2.64 0.33 5.28 0.66 8 1v-5h5v4c0.99 0.33 1.98 0.66 3 1h-3v2c-2.64-0.33-5.28-0.66-8-1 0.33 2.64 0.66 5.28 1 8-2.67-0.667-5.33-1.33-8-2v-2h-6v-5h-6v8h6v3h3v4h8v1c-5.28 0.33-10.6 0.66-16 1-1.35-2.71-1.07-5.01-1-8-1.32-0.33-2.64-0.66-4-1v-2h-6v2h-2c-0.33 2.64-0.66 5.28-1 8h5v3h2v2h7v2c0.66 0.33 1.32 0.66 2 1-2.64 0.33-5.28 0.66-8 1v9h-2v2c-0.495-0.309-0.99-0.619-1.5-0.938-3.48-1.48-6.74-1.69-10.5-2.06-0.33 1.65-0.66 3.3-1 5h-3c-0.33 0.99-0.66 1.98-1 3h-3c-0.33 0.99-0.66 1.98-1 3v-2h-6c-0.33 1.98-0.66 3.96-1 6-2.31 0.33-4.62 0.66-7 1-0.66 1.65-1.32 3.3-2 5h-3v2c-3.82 1.42-6.91 2.24-11 2v4h-9v2c-0.58 0.0606-1.16 0.121-1.76 0.184-4.44 0.477-8.84 1.03-13.2 1.82-0.33 1.98-0.66 3.96-1 6-0.638 0.049-1.28 0.098-1.93 0.148-0.826 0.0748-1.65 0.15-2.5 0.227-0.824 0.0696-1.65 0.139-2.5 0.211-0.682 0.137-1.36 0.273-2.07 0.414-0.33 0.66-0.66 1.32-1 2h-5c-0.33 1.65-0.66 3.3-1 5h-4v2c-1.05-0.0348-1.05-0.0348-2.12-0.0703-6.01-0.114-11.2 0.164-16.9 2.07-0.33 0.66-0.66 1.32-1 2h-2v2c-0.915 0.11-1.83 0.219-2.77 0.332-1.19 0.159-2.38 0.317-3.6 0.48-1.18 0.151-2.37 0.302-3.59 0.457-3.33 0.437-3.33 0.437-5.04 3.73-1.95 0.293-1.95 0.293-4.12 0.188-1.28-0.0619-2.56-0.124-3.88-0.188-1.49 2.97-1.49 2.97-3 6h-3v-2c-0.629 0.0722-1.26 0.144-1.91 0.219-4.24 0.459-8.33 0.829-12.6 0.656-1.73 0.0619-1.73 0.0619-3.5 0.125-0.66 0.99-1.32 1.98-2 3-3.29 0.841-6.17 0.997-9.56 0.938-3.31-0.176-3.31-0.176-5.54 1.06-4.23 1.47-8.27 1.22-12.7 1.13-0.884-0.00902-1.77-0.018-2.68-0.0273-2.17-0.0235-4.34-0.0593-6.51-0.0977v2c-7.38 0.596-14.7 1.13-22.1 0.938-1.98-0.0662-1.98-0.0662-3.89 1.06-1.88 0.154-3.76 0.25-5.64 0.316-1.15 0.0419-2.31 0.0838-3.49 0.127-1.21 0.0393-2.42 0.0786-3.67 0.119-1.75 0.0648-1.75 0.0648-3.54 0.131-10.6 0.368-21.1 0.603-31.7-0.131-1.23-0.0812-2.46-0.162-3.72-0.246-2.53-0.249-4.78-0.595-7.21-1.32v-2h-3v-2c-2.64-0.33-5.28-0.66-8-1v3h-6v-4h-6v8c-0.701 0.049-1.4 0.098-2.12 0.148-4.61 0.363-8.76 0.717-13.1 2.29-3.75 0.562-3.75 0.562-5.48-0.645-1.14-1.12-2.27-2.25-3.39-3.39-3.3-2.48-6.94-1.89-10.9-1.41 0.33 0.33 0.66 0.66 1 1 2.01-0.287 4.01-0.619 6-1v3h4c-0.33 0.99-0.66 1.98-1 3-0.33-0.33-0.66-0.66-1-1-2.02-0.234-4.04-0.413-6.06-0.562-1.66-0.126-1.66-0.126-3.35-0.254l-2.59-0.184v-2h-3c-0.495-1.49-0.495-1.49-1-3h4v-2h-3c-0.33-1.65-0.66-3.3-1-5h-4v-2l11 1v-2c1.32 0.33 2.64 0.66 4 1v2h3v6h10v-6h-4v-6c0.66-0.33 1.32-0.66 2-1 0.66 1.65 1.32 3.3 2 5h2v7c2.64 0.33 5.28 0.66 8 1 0.33-2.97 0.66-5.94 1-9 3.27-0.817 5.47-1.11 8.75-1.06 0.799 0.00902 1.6 0.018 2.42 0.0273 0.603 0.0116 1.21 0.0232 1.83 0.0352v-7c0.58 0.0157 1.16 0.0314 1.76 0.0476 2.64 0.0626 5.29 0.101 7.93 0.14 0.912 0.0251 1.82 0.0503 2.76 0.0762 5.11 0.0557 8.32-0.0865 12.5-3.26h2l1 12c0.33-0.99 0.66-1.98 1-3h3c0.495 1.49 0.495 1.49 1 3 0.33-0.99 0.66-1.98 1-3 2.31-0.33 4.62-0.66 7-1v-5h-6v-1h6v-4h-6v-2c3.58-1.24 6.34-0.749 10 0v-2c5.14-3.43 10-3.1 16-3 0.33-0.66 0.66-1.32 1-2v2h9c0.144-0.763 0.289-1.53 0.438-2.31 0.562-2.69 0.562-2.69 1.56-5.69 4.95-0.33 9.9-0.66 15-1v-2c2.21-0.677 4.41-1.34 6.62-2 1.23-0.371 2.46-0.742 3.73-1.12 3.39-0.812 6.19-1.05 9.65-0.875 0.165-0.784 0.33-1.57 0.5-2.38 1.5-2.62 1.5-2.62 3.24-3.4 3.77-0.973 7.36-1.47 11.3-1.22 0.33-1.32 0.66-2.64 1-4h5v-2c4.86-2.59 9.65-2.19 15-2v-2h2v-2h3c0.0619-0.598 0.124-1.2 0.188-1.81 1.19-3.19 2.78-3.67 5.81-5.19 1.12-0.462 1.12-0.462 2.26-0.934 1.2-0.497 1.2-0.497 2.43-1 0.767-0.298 1.53-0.596 2.32-0.902 2.41-1.41 2.77-2.72 3.99-5.16 3.62-0.75 3.62-0.75 7-1 0.33-0.99 0.66-1.98 1-3 1.74-1.17 1.74-1.17 3.88-2.19 0.699-0.344 1.4-0.688 2.12-1.04 3.71-1.42 7.2-0.447 11 0.23 0.33-2.97 0.66-5.94 1-9 2.97-0.33 5.94-0.66 9-1v-2c0.99-0.33 1.98-0.66 3-1 0.372-1.32 0.706-2.66 1-4 2.71-1.35 5.01-1.07 8-1-0.0309-1.45-0.0309-1.45-0.0625-2.94 0.0625-3.06 0.0625-3.06 1.06-4.06 1.86 0.0898 3.71 0.246 5.56 0.438 1.52 0.153 1.52 0.153 3.07 0.309 0.782 0.0838 1.56 0.168 2.37 0.254-0.0116-0.638-0.0232-1.28-0.0352-1.93-0.0135-1.24-0.0135-1.24-0.0273-2.5-0.0116-0.824-0.0232-1.65-0.0352-2.5 0.0977-2.07 0.0977-2.07 1.1-3.07 1.67-0.0406 3.33-0.0427 5 0v-3h2c0.33-1.32 0.66-2.64 1-4 2.97-0.33 5.94-0.66 9-1 0.0825-0.949 0.165-1.9 0.25-2.88 0.75-3.12 0.75-3.12 2.62-4.5 2.12-0.625 2.12-0.625 5.12-0.625 0.33-1.98 0.66-3.96 1-6 3.48-1.16 5.46-0.708 9 0-0.124-0.908-0.247-1.82-0.375-2.75 0.375-3.25 0.375-3.25 3.25-5.62 3.13-1.62 3.13-1.62 5.12-1.62v-2h2c0.33-1.32 0.66-2.64 1-4 2.31-0.33 4.62-0.66 7-1v-6c-0.66-0.33-1.32-0.66-2-1h4v-2h2c0.33-1.32 0.66-2.64 1-4h5v-11h10c0.33-2.64 0.66-5.28 1-8 0.99-0.33 1.98-0.66 3-1v-2h2c0.0619-0.949 0.124-1.9 0.188-2.88 0.268-1.03 0.536-2.06 0.812-3.12 2.56-1.38 2.56-1.38 5-2v-2h2c0.33-1.98 0.66-3.96 1-6 2.31-0.66 4.62-1.32 7-2 0.33-2.31 0.66-4.62 1-7h2c0.33-0.99 0.66-1.98 1-3 3.56-1.19 3.56-1.19 7-2v-7c0.99-0.33 1.98-0.66 3-1 0.611-1.86 0.611-1.86 1-4 0.637-1.35 1.3-2.69 2-4h5v-6h4c0.66-1.98 1.32-3.96 2-6h3c0.33-2.31 0.66-4.62 1-7h2c0.66-2.31 1.32-4.62 2-7h2v-2h2c1.96-3.51 2.96-7.13 4-11h2c0.124-0.742 0.247-1.49 0.375-2.25 0.58-2.55 1.36-4.48 2.62-6.75h2v-4h4v5h4v3h-6v13h-4v6c-1.98 0.33-3.96 0.66-6 1v9h2v10h6v-11h2v-7c1.98-0.33 3.96-0.66 6-1v-4h5v-10h-5v-5h2v3h6v-7c1.65-0.33 3.3-0.66 5-1v-3h3c0.33-3.96 0.66-7.92 1-12 0.99-0.33 1.98-0.66 3-1v-4h4v-15h2v-5h6c0.33-2.64 0.66-5.28 1-8h4v-5h3c-0.0116-0.82-0.0232-1.64-0.0352-2.48-0.0135-1.62-0.0135-1.62-0.0273-3.27-0.0116-1.07-0.0232-2.13-0.0352-3.23 0.0826-2.55 0.351-4.59 1.1-7.02h4v-11h3c0.33-1.65 0.66-3.3 1-5h4v-16h4v-4h4v-16h2v-4h2c-0.186-1.07-0.371-2.14-0.562-3.25-0.368-3.15-0.482-4.85 0.562-7.75h2v-2h2v-6h2v-10h-8c-0.0258 0.771-0.0516 1.54-0.0781 2.34-0.0567 1-0.113 2.01-0.172 3.04-0.0464 0.998-0.0928 2-0.141 3.02-0.201 0.859-0.402 1.72-0.609 2.6-1.32 0.66-2.64 1.32-4 2v12h-3c-0.433 0.897-0.433 0.897-0.875 1.81-1.12 2.19-1.12 2.19-3.12 5.19-0.363 1.93-0.363 1.93-0.414 4.01-0.0387 0.757-0.0773 1.51-0.117 2.29-0.0309 0.786-0.0619 1.57-0.0938 2.38-0.0387 0.797-0.0773 1.59-0.117 2.42-0.0941 1.97-0.177 3.93-0.258 5.9h-4c-0.219 1.12-0.438 2.24-0.664 3.39-0.319 1.47-0.639 2.95-0.961 4.42-0.141 0.738-0.281 1.48-0.426 2.24-0.933 4.12-1.31 5.53-4.97 7.96-2.98 0.988-2.98 0.988-4.98 0.988v7h2v4h-2v4c-0.99 0.33-1.98 0.66-3 1-0.33 1.98-0.66 3.96-1 6 1.32 0.33 2.64 0.66 4 1h-3c-0.33 1.98-0.66 3.96-1 6h-2v2h-2v6h-2v3h-4v3h-2v20c-1.98 0.33-3.96 0.66-6 1v3h-2v8h-4v2h-2v2h-2v2h-6c0.66-5.28 1.32-10.6 2-16 1.65-0.33 3.3-0.66 5-1 0.0825-1.28 0.165-2.56 0.25-3.88 0.266-2.24 0.266-2.24 0.75-4.12 1.32-0.699 2.65-1.37 4-2 0.819-3.56 0.819-3.56 1-7h2c0.144-1.05 0.289-2.1 0.438-3.19 0.97-6.57 0.97-6.57 1.56-8.81 0.66-0.33 1.32-0.66 2-1 0.652-2.02 0.652-2.02 1-4h4c0.33-2.31 0.66-4.62 1-7h2c0.33-1.65 0.66-3.3 1-5h3c-0.0309-1.7-0.0309-1.7-0.0625-3.44 0.0625-3.56 0.0625-3.56 1.06-4.56 0.284-2.81 0.448-5.62 0.621-8.43 0.379-2.57 0.379-2.57 2.38-4.57 0.679-2.43 0.679-2.43 1.12-5.12 0.168-0.91 0.335-1.82 0.508-2.76 0.121-0.699 0.242-1.4 0.367-2.12h2v-5c1.32-0.33 2.64-0.66 4-1-0.058-0.727-0.116-1.45-0.176-2.2-0.378-8.42 1.58-14.3 5.18-21.8 0.33-0.99 0.66-1.98 1-3h2c-0.0174-1.28-0.0174-1.28-0.0352-2.59-0.0135-1.66-0.0135-1.66-0.0273-3.35-0.0116-1.1-0.0232-2.2-0.0352-3.34 0.0977-2.72 0.0977-2.72 1.1-3.72 0.368-2.33 0.702-4.66 1-7h2v-11c-0.66-0.33-1.32-0.66-2-1 0.99-0.33 1.98-0.66 3-1 1.19-3.56 1.35-6.97 1.56-10.7 0.0432-0.702 0.0864-1.4 0.131-2.13 0.106-1.73 0.207-3.46 0.307-5.19 0.99-0.33 1.98-0.66 3-1-0.33-3.63-0.66-7.26-1-11h-2v-3c2.64-0.33 5.28-0.66 8-1 0.27-5.27-0.737-9.93-2-15h4v-19c-0.66-0.33-1.32-0.66-2-1-0.594-2.65-0.742-5.29-1-8h4c-0.03-0.554-0.0599-1.11-0.0908-1.68-1.13-22-1.03-44-0.978-66 0.0104-5.02 0.0148-10 0.0198-15 0.0106-9.77 0.0276-19.5 0.0488-29.3h-3v-2c-1.32-0.33-2.64-0.66-4-1 0.0174-1.35 0.0174-1.35 0.0352-2.73 0.0826-11.8-0.424-23.5-1.04-35.3-1.65-0.33-3.3-0.66-5-1v-10h-2c-0.33-10.9-0.66-21.8-1-33-1.65-0.66-3.3-1.32-5-2v-4h5v-7h-7v-4h-2c-0.33-1.65-0.66-3.3-1-5h3c-0.33-3.3-0.66-6.6-1-10h4v-5h4v-6h-6v3h-4v3h-4c-0.33 0.99-0.66 1.98-1 3-0.433-1.61-0.433-1.61-0.875-3.25-0.944-3.56-0.944-3.56-2.25-5.94-0.875-1.81-0.875-1.81-0.875-5.81h-2v-8h-2c-0.33-3.63-0.66-7.26-1-11-1.65-0.33-3.3-0.66-5-1v-2h5v-15h-6v13h-2v-28h-7v-4h-7c-0.33 0.66-0.66 1.32-1 2-0.33-1.65-0.66-3.3-1-5-0.99-0.33-1.98-0.66-3-1v-2h4c-0.33-4.29-0.66-8.58-1-13h-6c-2.02-7.44-2.21-14.3-2-22h-6v6h-1v-5h-9v-11c-0.99-0.33-1.98-0.66-3-1v-4c-1.11-0.103-2.23-0.206-3.38-0.312-1.79-0.34-1.79-0.34-3.62-0.688-2-3-2-3-2-6-1.32-0.33-2.64-0.66-4-1v-2h4v-3h4v-6c-1.01 0.186-2.02 0.371-3.06 0.562-3.92 0.435-7.08 0.146-10.9-0.562-0.33 0.66-0.66 1.32-1 2-0.33-2.31-0.66-4.62-1-7h-3v-2h4v-6h-9v-3h-6c-0.66-1.65-1.32-3.3-2-5-1.08 0.186-1.08 0.186-2.19 0.375-2.81-0.375-2.81-0.375-5.56-3-2.27-2.99-2.98-5.6-3.25-9.38-1.32-0.33-2.64-0.66-4-1v-4h2c-0.66-3.3-1.32-6.6-2-10-1.7-0.217-1.7-0.217-3.44-0.438-3.56-0.562-3.56-0.562-4.56-1.56-0.33 0.66-0.66 1.32-1 2-1.98-0.33-3.96-0.66-6-1-0.66-3.63-1.32-7.26-2-11-1.65-0.33-3.3-0.66-5-1v-3c-0.868-0.186-0.868-0.186-1.75-0.375-2.28-0.635-4.1-1.5-6.18-2.62-3.01-1.55-5.66-2.58-9.06-3-1.04-3.77-1-7.08-1-11h-9c0.33-2.97 0.66-5.94 1-9h4v-7c-0.978 0.0838-1.96 0.168-2.96 0.254-7.16 0.557-13.9 0.872-21-0.254v-4h-6c-0.33 0.66-0.66 1.32-1 2-0.454-0.969-0.908-1.94-1.38-2.94-1.28-3.13-1.28-3.13-3.62-4.06v-2c-0.99-0.33-1.98-0.66-3-1 1.65-0.33 3.3-0.66 5-1-0.66-0.33-1.32-0.66-2-1v-2c-0.99-0.33-1.98-0.66-3-1h6c0.33-3.63 0.66-7.26 1-11-0.66-0.33-1.32-0.66-2-1h2v-6h-3v-2c5.38-1.19 10.5-2.29 16-2z" fill="#F9FCFD"/>
<path transform="translate(564,557)" d="m0 0c1.35 0.127 2.71 0.202 4.07 0.246 1.22 0.0493 1.22 0.0493 2.47 0.0996 1.7 0.0604 3.4 0.118 5.1 0.172 4.6 0.191 8.79 0.683 13.2 1.91 2.47 0.66 4.94 1.17 7.45 1.68 9.79 2.01 19.2 4.09 28.6 7.71 3.15 1.19 6.31 2.09 9.55 2.98 7.11 2.14 13.3 5.57 19.7 9.17 2.92 1.59 5.93 3.01 8.93 4.45 21 10.5 41.1 26.4 55.9 44.6 0.804 0.804 1.61 1.61 2.44 2.44 6.07 6.07 11.4 12.7 16.6 19.6 1.11 1.44 1.11 1.44 2.24 2.91 11.1 14.6 19.1 31 26.3 47.8 0.501 1.17 1 2.33 1.52 3.53 2.73 6.49 5.05 12.9 6.92 19.7 0.339 1.13 0.678 2.25 1.03 3.41 5.77 20.4 8.18 41.2 8.16 62.3 3.93e-4 0.767 7.86e-4 1.53 0.00119 2.32-0.0225 36.8-0.0225 36.8-3.19 40-0.32 1.56-0.588 3.13-0.832 4.71-0.156 0.973-0.313 1.95-0.474 2.95-0.251 1.56-0.251 1.56-0.507 3.16-2.15 12.7-5.75 23.6-11.3 35.3-1.56 3.27-3.01 6.58-4.43 9.91-2.66 6.24-5.5 12.3-8.67 18.3-0.329 0.628-0.659 1.26-0.998 1.9-2.38 4.41-2.38 4.41-4.24 6.26-1.95 1.96-3.11 4.24-4.44 6.64-1.75 3.04-3.78 5.85-5.83 8.69-0.439 0.609-0.878 1.22-1.33 1.85-19.3 26.6-43.5 47-71.9 63.3-1 0.579-2.01 1.16-3.04 1.75-4.97 2.79-9.94 5.19-15.3 7.19-1.51 0.593-3.01 1.21-4.47 1.9-6.44 3.02-13.1 5.12-19.9 7.14-1.93 0.574-3.86 1.16-5.78 1.75-7.86 2.35-15.6 4.2-23.7 5.67-2.73 0.305-2.73 0.305-3.84 1.6-39.6 7.92-86.3 4.7-123-11.8-2.96-1.3-5.95-2.41-8.98-3.52-7.24-2.76-14.1-6.18-20.9-9.75-1.55-0.802-3.11-1.58-4.67-2.36-13.6-6.99-39.1-21.3-44.1-36.6 5.06 0.447 7.33 2.74 11 6 0.66 0.33 1.32 0.66 2 1-0.0232-0.626-0.0464-1.25-0.0703-1.9-0.018-0.817-0.0361-1.63-0.0547-2.48-0.0232-0.812-0.0464-1.62-0.0703-2.46 0.195-2.16 0.195-2.16 2.2-4.16 3.12-0.125 3.12-0.125 6 0v4h8c-0.488 4.48-0.988 8.96-1.56 13.4-0.478 3.3-0.478 3.3-0.438 5.56 0.66 0.33 1.32 0.66 2 1v-11h7v7l2.12-0.0352 2.76-0.0273c0.905-0.0116 1.81-0.0232 2.74-0.0352 2.38 0.0977 2.38 0.0977 4.38 1.1v3h2c0.66 1.65 1.32 3.3 2 5 0.66-0.33 1.32-0.66 2-1 6.47-0.353 6.47-0.353 10 2v2h5v5c1.48-0.308 2.96-0.622 4.44-0.938 1.24-0.261 1.24-0.261 2.5-0.527 2.04-0.343 2.04-0.343 3.07-1.54 1.52-0.0718 3.04-0.0839 4.56-0.0625 0.826 0.00902 1.65 0.018 2.5 0.0273 0.638 0.0116 1.28 0.0232 1.93 0.0352v6h3c0.33 0.99 0.66 1.98 1 3 0.33-0.33 0.66-0.66 1-1 6.17-0.466 6.17-0.466 9.44 1.38 1.56 1.62 1.56 1.62 1.56 3.62 1.65 0.33 3.3 0.66 5 1v2h6v2c4.46 0.0578 8.92 0.0935 13.4 0.125 1.27 0.0168 2.54 0.0335 3.85 0.0508 1.21 0.00645 2.42 0.0129 3.67 0.0195 1.12 0.0105 2.24 0.0209 3.4 0.0317 2.86 0.0535 2.86 0.0535 4.71-2.23 2.28-0.23 2.28-0.23 4.94-0.188 0.875 0.00645 1.75 0.0129 2.65 0.0195 2.41 0.168 2.41 0.168 5.41 1.17 3.55 0.0691 7.1-0.00269 10.7-0.0625 2.74 0.0511 4.74 0.386 7.35 1.06 0.66-0.33 1.32-0.66 2-1 1.74-0.153 3.48-0.249 5.23-0.316 1.03-0.0419 2.06-0.0838 3.12-0.127 1.08-0.0393 2.16-0.0786 3.27-0.119 1.09-0.0432 2.18-0.0864 3.3-0.131 2.69-0.106 5.39-0.208 8.08-0.307 0.103-0.619 0.206-1.24 0.312-1.88 0.688-2.12 0.688-2.12 3.69-4.12 2.33-0.0791 4.67-0.088 7 0v-2c4.95-0.33 9.9-0.66 15-1v-2c4.29-0.33 8.58-0.66 13-1 0.66-1.65 1.32-3.3 2-5 3-2 3-2 6-2v-3c2.31-0.33 4.62-0.66 7-1-0.33-1.65-0.66-3.3-1-5h-4v-6h-3v-7h9v9c2.31-0.33 4.62-0.66 7-1-0.33-2.97-0.66-5.94-1-9 5.03 0.534 10 1.11 15 2v3h2v-3h2v-2h-2v-6c1.89-0.0309 1.89-0.0309 3.81-0.0625 0.708-0.0116 1.42-0.0232 2.14-0.0352 2.04 0.0977 2.04 0.0977 5.04 1.1 2.14-0.389 2.14-0.389 4-1v-2h-4v-2h-3v-6c2.75-0.917 4.36-1.11 7.19-1.06 1.26 0.0206 2.52 0.0412 3.81 0.0625v-5c1.65-0.33 3.3-0.66 5-1v-2h3v-5c0.639-0.124 1.28-0.247 1.94-0.375 1.02-0.309 1.02-0.309 2.06-0.625 0.33-0.66 0.66-1.32 1-2h6c-1.05-1.16-1.05-1.16-3-2-0.0425-2-0.0408-4 0-6 1-1 1-1 4.56-1.06 1.13 0.0206 2.27 0.0412 3.44 0.0625 0.124-0.969 0.247-1.94 0.375-2.94 0.309-1.52 0.309-1.52 0.625-3.06 0.66-0.33 1.32-0.66 2-1 0.656-2.53 0.656-2.53 1-5 2.97 0.33 5.94 0.66 9 1-0.66-0.33-1.32-0.66-2-1v-3c0.66-0.33 1.32-0.66 2-1-0.66-0.33-1.32-0.66-2-1-0.0425-2-0.0408-4 0-6 1-1 1-1 4.31-1.12 2.83 0.0961 5.02 0.273 7.69 1.12 0.33-0.66 0.66-1.32 1-2-0.464-1.11-0.464-1.11-0.938-2.25-1.2-3.09-1.22-5.46-1.06-8.75h9v-2h-3v-4h-7v-12h5v-3c-2.97-0.33-5.94-0.66-9-1 0.33-4.95 0.66-9.9 1-15h11c-0.0309-2.35-0.0309-2.35-0.0625-4.75-0.0432-3.28 0.126-6.09 1.06-9.25h-6v10h-6v-26h6v2h5v-12h2v-3h2v-14h4v-12h-4c-0.33-7.59-0.66-15.2-1-23-0.99-0.33-1.98-0.66-3-1v3h-6v-6h6v-10h-4v-6h5v-2h-4c-0.66-1.65-1.32-3.3-2-5h-6c-1.03-5.28-1.32-10.5-1.56-15.9-0.0432-0.879-0.0864-1.76-0.131-2.66-0.105-2.15-0.206-4.31-0.307-6.46h-2v-5h-2v2h-6v-2h-4v-9h4c-0.33-3.3-0.66-6.6-1-10h-7c-0.33-3.3-0.66-6.6-1-10-2.31-0.33-4.62-0.66-7-1-0.66-3.3-1.32-6.6-2-10h-6v-5h-3v2h-6v-14h-5v-2h-2v-2h-2c-0.33 0.66-0.66 1.32-1 2h-6v-6h3v-2h-3v-2h-2v2h-6v-6h-3v-2h-4c-0.33-1.98-0.66-3.96-1-6h-3v-2h-2v-2h-5v-4c-1.65-0.33-3.3-0.66-5-1v-2h-2c-0.33 2.64-0.66 5.28-1 8h6v3h3v6h-5v4h-6v-6c-2.31-0.33-4.62-0.66-7-1v-6h3v-13h-3v2h-7v4h-15v5h-6v-9h-6v-4h-21v-6h2v-2h-4v-6h6v2h4v2h10v4h6v4h3c0.0998-3.49-0.222-6.59-1-10h-2v2h-3v-2h-3c-0.33-0.99-0.66-1.98-1-3-2.97-0.33-5.94-0.66-9-1v-3c-10.9-0.33-21.8-0.66-33-1v6h-3v2h-6v2h-2v2c-6.43 0.495-6.43 0.495-13 1v-3c-2.64-0.33-5.28-0.66-8-1v-3h-3v3c-1.32 0.33-2.64 0.66-4 1-1.04 3.38-1.08 6.48-1 10h-11v2h-6v4h-4v2h-3v4l-2 1c-0.407 2.32-0.744 4.66-1 7h-6v-6h-7v10h-6v-2h-5v2h-6v-3h-2v-6c2.97-0.495 2.97-0.495 6-1v-2h7v-2h3v-2c5.45-1.39 10.4-2.24 16-2v-6h10v-4h4v-2h2v-14h2v-7h-3v3h-2v2h-2c-0.33 0.99-0.66 1.98-1 3-3.3-0.33-6.6-0.66-10-1v7h-7c-0.99 4.95-0.99 4.95-2 10-1.15 0.0606-2.29 0.121-3.47 0.184-1.53 0.0845-3.06 0.169-4.59 0.254-0.752 0.0393-1.5 0.0786-2.28 0.119-4.61 0.259-9.1 0.723-13.7 1.44v8h-7c-0.33-0.66-0.66-1.32-1-2-1.48-0.495-1.48-0.495-3-1-0.33 2.31-0.66 4.62-1 7h-2v2c-3.47 0.495-3.47 0.495-7 1-0.33 1.32-0.66 2.64-1 4h-2v3c-1.86 0.0309-1.86 0.0309-3.75 0.0625-0.696 0.0116-1.39 0.0232-2.11 0.0352-2.14-0.0977-2.14-0.0977-6.14-1.1v9h-6v10c-3.34 0.0743-5.8 0.0655-9-1-0.33 2.97-0.66 5.94-1 9h-5v2h-3c-0.0258 0.843-0.0516 1.69-0.0781 2.55l-0.172 3.32c-0.0464 1.09-0.0928 2.18-0.141 3.3-0.609 2.82-0.609 2.82-2.47 4.2-2.14 0.617-2.14 0.617-5.14 0.617v2h-2v4h-2c-0.66 3.96-1.32 7.92-2 12h-6v8h-4c-0.144 0.598-0.289 1.2-0.438 1.81-0.45 1.75-0.991 3.47-1.56 5.19h-6v3h2v6h-4v5c-0.99 0.33-1.98 0.66-3 1v7h-2c-0.049 0.906-0.098 1.81-0.148 2.75-0.856 14-0.856 14-2.85 20.3-2.07 1.23-2.07 1.23-4 2 0.141 3.63 0.289 7.25 0.438 10.9 0.0393 1.01 0.0786 2.03 0.119 3.07 0.266 6.38 0.726 12.7 1.44 19.1h3v-3h6c-0.0157-0.781-0.0314-1.56-0.0476-2.37-0.0626-3.56-0.101-7.13-0.14-10.7-0.0251-1.23-0.0503-2.46-0.0762-3.72-0.0533-6.59 0.105-11.4 3.26-17.2 0.429-1.3 0.836-2.61 1.19-3.94l0.812-3.06h3c-0.0232-0.904-0.0464-1.81-0.0703-2.74-0.018-1.18-0.0361-2.36-0.0547-3.57-0.0232-1.17-0.0464-2.34-0.0703-3.55 0.195-3.14 0.195-3.14 2.2-6.14h3c-0.33-0.66-0.66-1.32-1-2-0.04-2-0.0435-4 0-6h4v-9h2v-4h2v-3h2v-2h2v-3c1.32-0.33 2.64-0.66 4-1v-4h4v-11h11v6h-5v8h-3v15c-3.47 0.695-5.91 1.12-9.31 1.06-1.83-0.0309-1.83-0.0309-3.69-0.0625v13h-3v19h-4c-0.33 2.31-0.66 4.62-1 7h-3v16h-5v20h-6v6h-9v22h-3v2h2c1 3 1.12 4.97 1.1 8.11-0.00322 0.983-0.00645 1.97-0.00977 2.98-0.00838 1.02-0.0168 2.05-0.0254 3.1l-0.0137 3.14c-0.0118 2.56-0.0282 5.12-0.0488 7.67h8c-0.33 2.97-0.66 5.94-1 9h-5v4h2v5h4c0.33 6.27 0.66 12.5 1 19 0.99 0.33 1.98 0.66 3 1v4c0.782-0.0116 1.56-0.0232 2.37-0.0352l6.12-0.0625c2.5 0.0977 2.5 0.0977 3.5 1.1 0.0732 2.7 0.0924 5.37 0.0625 8.06-0.00451 0.759-0.00902 1.52-0.0137 2.3-0.0118 1.88-0.0298 3.76-0.0488 5.64h4c0.495 3.47 0.495 3.47 1 7h3c0.33-1.32 0.66-2.64 1-4h6v14h-9c0.33 0.887 0.66 1.77 1 2.69 0.921 3.05 1 5.19 1 8.31 0.66 0.66 1.32 1.32 2 2h-2v4c1.32 0.33 2.64 0.66 4 1 0.144-1.26 0.289-2.52 0.438-3.81 0.3-2.61 0.721-4.66 1.56-7.19h6v3h3c0.495 5.44 0.495 5.44 1 11h-6v2h2c2 3 2 3 2 7h2v2c1.65 0.66 3.3 1.32 5 2v5h2v12h-5c-0.33-1.98-0.66-3.96-1-6h-2c0.33 1.98 0.66 3.96 1 6-13.4-2.68-24.7-22.2-32-33v-2h-2c-0.33-1.32-0.66-2.64-1-4h-2c-11.8-22.3-11.8-22.3-16.1-31.4-0.518-1.09-1.04-2.18-1.57-3.31-1.49-3.72-2.41-7.34-3.3-11.3h-2c-0.315-1.03-0.629-2.05-0.953-3.11-0.432-1.4-0.864-2.8-1.3-4.2-0.225-0.733-0.451-1.47-0.683-2.22-1.28-4.11-2.69-8.1-4.32-12.1-2.05-5.41-2.31-10.7-2.48-16.4-0.0529-3.15-0.0529-3.15-2.27-5.97-1.14-7.22-1.15-14.4-1.13-21.7-9.57e-4 -1.19-0.00191-2.39-0.0029-3.62-6.77e-4 -2.51 0.00115-5.02 0.00534-7.53 0.00537-3.84 3.28e-5 -7.68-0.00635-11.5 6.61e-4 -2.45 0.00194-4.89 0.00391-7.34-0.00202-1.14-0.00405-2.29-0.00613-3.47 0.00315-1.07 0.0063-2.14 0.00955-3.25 7.96e-4 -0.937 0.00159-1.87 0.00241-2.84 0.138-2.98 0.585-5.81 1.13-8.75 1.44-8.29 1.44-8.29 2.5-16.6 0.5-3.38 0.5-3.38 2.5-5.38 0.235-1.88 0.464-3.76 0.656-5.65 0.621-4.25 2.01-8.28 3.34-12.4 0.308-0.949 0.616-1.9 0.934-2.88 5.56-16.3 13.2-31.4 22.1-46.1 0.503-0.861 1.01-1.72 1.52-2.61 5.01-8.53 10.7-16.5 16.7-24.3 0.424-0.556 0.849-1.11 1.29-1.68 2.03-2.62 4.08-5.07 6.46-7.38 1.07-1.24 2.13-2.5 3.19-3.75 3.05-3.53 6.31-6.55 9.92-9.51 2.01-1.74 2.01-1.74 3.77-4.14 2.39-2.92 5.04-5.18 8-7.47 0.593-0.461 1.19-0.921 1.8-1.4 12.4-9.52 25.3-18.8 39.5-25.4 2.36-1.1 4.51-2.29 6.72-3.67 3.55-1.88 6.09-2.3 10.1-2.62v-3c1.18-0.338 2.36-0.675 3.58-1.02 1.56-0.45 3.11-0.901 4.67-1.35 0.777-0.222 1.55-0.443 2.36-0.672 0.754-0.219 1.51-0.438 2.29-0.664 1.04-0.298 1.04-0.298 2.09-0.603 2.05-0.643 2.05-0.643 3.99-1.7 2.18-1.06 4.13-1.55 6.5-2.02 0.835-0.17 1.67-0.339 2.53-0.514 0.864-0.17 1.73-0.339 2.62-0.514 1.72-0.343 3.44-0.688 5.16-1.04 0.76-0.15 1.52-0.299 2.3-0.453 1.98-0.388 1.98-0.388 3.91-1.45 3.21-0.527 6.42-0.961 9.64-1.4 3.31-0.493 3.31-0.493 6.16-1.6 3.37-1.05 6.31-1.41 9.82-1.64 1.27-0.0838 2.53-0.168 3.84-0.254 1.31-0.0786 2.63-0.157 3.98-0.238 1.92-0.13 1.92-0.13 3.87-0.262 24.8-1.57 24.8-1.57 28.7 0.387z" fill="#FBFCFE"/>
<path transform="translate(1211,619)" d="m0 0c5.62-0.25 5.62-0.25 9 2 0.512 2.16 0.512 2.16 0.688 4.62 0.0986 1.23 0.0986 1.23 0.199 2.48 0.0374 0.626 0.0748 1.25 0.113 1.9h3c0.71 5.53 1.3 10.5 0 16h5v10c1.48-0.495 1.48-0.495 3-1v-4h-2v-5h4v10c1.32 0.33 2.64 0.66 4 1v7h-2v2h3v-2h2v3c-2.31 0.66-4.62 1.32-7 2h4 3c0.495 2.97 0.495 2.97 1 6l-2 1c0.495 5.94 0.495 5.94 1 12 1.95-2.92 2.45-4.63 3-8l-2-1c0.33-1.32 0.66-2.64 1-4h2c0.495 7.42 0.495 7.42 1 15-2.47 0.99-2.47 0.99-5 2v3h3c-0.33-0.99-0.66-1.98-1-3h2c0.33 0.66 0.66 1.32 1 2 0.99 0.66 1.98 1.32 3 2-0.99 0.33-1.98 0.66-3 1 0.495 1.14 0.495 1.14 1 2.31 1 2.69 1 2.69 1 5.69 1.98-0.495 1.98-0.495 4-1 0.495 3.96 0.495 3.96 1 8h-2c-0.33 1.98-0.66 3.96-1 6 0.99 0.495 0.99 0.495 2 1h-2c0.199 0.996 0.199 0.996 0.402 2.01 1.6 7.99 1.6 7.99 2.1 10.7 0.512 2.37 1.33 4.2 2.5 6.31-0.99 1.32-1.98 2.64-3 4 0.99-0.33 1.98-0.66 3-1v3c0.99 0.33 1.98 0.66 3 1-0.66 0.66-1.32 1.32-2 2-0.281 2.11-0.281 2.11-0.188 4.44 0.00967 1.17 0.00967 1.17 0.0195 2.37 0.0924 2.37 0.0924 2.37 1.17 5.19 2.47-0.99 2.47-0.99 5-2 0.937 8.08 1.15 15.1-1 23h-1c-0.66-3.3-1.32-6.6-2-10-0.66 3.3-1.32 6.6-2 10h-4v10h4v2h5c-0.66 0.33-1.32 0.66-2 1v4h3c-0.186 0.598-0.371 1.2-0.562 1.81-0.658 2.35-0.658 2.35 0.562 5.19 2.88-0.882 2.88-0.882 5-2 0.0253 6.94 0.0428 13.9 0.0549 20.8 0.00504 2.36 0.0119 4.73 0.0205 7.09 0.0121 3.39 0.0178 6.78 0.0222 10.2 0.00516 1.06 0.0103 2.12 0.0156 3.22 7.55e-5 0.981 1.51e-4 1.96 2.29e-4 2.97 0.00222 0.866 0.00444 1.73 0.00673 2.62-0.12 2.1-0.12 2.1-1.12 4.1h-2v2h-2c-0.33-0.66-0.66-1.32-1-2h-2v2h-2v3h-4v6h4v2h-2v3h2v2h3v6h-2c0.165 0.825 0.33 1.65 0.5 2.5 0.559 3.91 0.568 7.55 0.5 11.5h2v10h-2v-4c-0.33 0.33-0.66 0.66-1 1-1.67 0.0406-3.33 0.0427-5 0v4h5v1h-5v4c1.32 0.33 2.64 0.66 4 1h-3v3h2v2h-2v2h-2v2h-8v8c2.64-0.33 5.28-0.66 8-1v7h-3v7h-1c-0.33-1.98-0.66-3.96-1-6-1.32-0.33-2.64-0.66-4-1v-3h-2c-0.121-0.638-0.242-1.28-0.367-1.93-0.168-0.826-0.335-1.65-0.508-2.5-0.162-0.824-0.325-1.65-0.492-2.5-0.209-0.682-0.418-1.36-0.633-2.07-0.66-0.33-1.32-0.66-2-1 0.99-0.33 1.98-0.66 3-1 0.33-2.31 0.66-4.62 1-7h4c-0.33-2.97-0.66-5.94-1-9h-3v-11h4v-12h2c-0.00524-0.615-0.0105-1.23-0.0159-1.86-0.0208-2.8-0.0338-5.59-0.0466-8.39-0.00838-0.968-0.0168-1.94-0.0254-2.93-0.00322-0.935-0.00645-1.87-0.00977-2.83-0.00524-0.859-0.0105-1.72-0.0159-2.6 0.109-2.28 0.555-4.18 1.11-6.38-0.0883-2.66-0.233-5.28-0.438-7.94-0.508-7.37-0.678-14.7-0.562-22.1-0.66-0.33-1.32-0.66-2-1h3c-0.308-2.96-0.621-5.92-0.938-8.88-0.131-1.26-0.131-1.26-0.264-2.55-0.131-1.21-0.131-1.21-0.264-2.44-0.118-1.12-0.118-1.12-0.238-2.25-0.213-1.96-0.213-1.96-1.3-3.88-0.13-1.84-0.203-3.68-0.246-5.52-0.0329-1.1-0.0657-2.21-0.0996-3.34-0.061-2.33-0.118-4.66-0.172-6.99-0.0342-1.11-0.0683-2.21-0.104-3.35-0.0251-1.01-0.0501-2.03-0.0759-3.07-0.305-2.74-0.971-4.34-2.3-6.72-0.414-2.36-0.414-2.36-0.625-4.75-0.0748-0.799-0.15-1.6-0.227-2.42-0.049-0.603-0.098-1.21-0.148-1.83h2v-19h-2v-10c-0.99-0.33-1.98-0.66-3-1-1.67-3.34-1.34-7.13-1.5-10.8-0.281-7.15-0.281-7.15-1.5-14.2h-2c-0.0374-0.615-0.0748-1.23-0.113-1.86-0.0986-1.21-0.0986-1.21-0.199-2.45-0.058-0.801-0.116-1.6-0.176-2.43-0.599-2.65-1.55-3.47-3.51-5.26v-2h-2c0.0232-0.652 0.0464-1.3 0.0703-1.98 0.104-5.05 0.148-9.36-2.07-14-0.701-0.577-1.4-1.15-2.12-1.75-3.02-3.62-2.19-7.72-1.88-12.2h-2v-2h2v-3h-2v-4h-2c-0.672-1.94-1.34-3.87-2-5.81-0.371-1.08-0.743-2.16-1.12-3.27-0.875-2.92-0.875-2.92-0.875-5.92h-2v-2h-2c-0.0374-0.831-0.0748-1.66-0.113-2.52-0.0657-1.09-0.131-2.17-0.199-3.29-0.058-1.08-0.116-2.16-0.176-3.27-0.542-3.09-1.06-4.05-3.51-5.92h6v-5z" fill="#F9FCFD"/>
<path transform="translate(614,570)" d="m0 0c3.38 0 5.83 0.875 9 2l-2 2h-3v2h11c-0.33 0.66-0.66 1.32-1 2-2.07 0.414-2.07 0.414-4.56 0.625-1.24 0.112-1.24 0.112-2.5 0.227-0.957 0.0735-0.957 0.0735-1.93 0.148 1.13 0.289 2.27 0.577 3.44 0.875 1.18 0.371 2.35 0.742 3.56 1.12 0.495 0.99 0.495 0.99 1 2-2.48-0.495-2.48-0.495-5-1v5h6v-4h2v-2c0.928-0.124 0.928-0.124 1.88-0.25 2.31-0.563 2.31-0.563 3.38-2.81 0.247-0.639 0.495-1.28 0.75-1.94 0.495 1.98 0.495 1.98 1 4 1.39-0.34 1.39-0.34 2.81-0.688 3.19-0.312 3.19-0.312 5.06 1.12 0.371 0.516 0.742 1.03 1.12 1.56h-3v2c1.32 0.66 2.64 1.32 4 2h-3v4c-0.99-0.33-1.98-0.66-3-1v-2c-0.66-0.33-1.32-0.66-2-1v11h3v5c4.95-0.33 9.9-0.66 15-1v2c0.69-0.0232 1.38-0.0464 2.09-0.0703 6.33-0.122 11.8 0.464 17.9 2.07l1 4h-3v-2h-2v3h-2v6h6v-6c1.98 0.33 3.96 0.66 6 1l-4 2v6h4v6h8v3h3c0.495 2.48 0.495 2.48 1 5 2.64 0.33 5.28 0.66 8 1v7h6v-2c5.44 0.495 5.44 0.495 11 1 0.124 0.969 0.247 1.94 0.375 2.94 0.206 1.01 0.413 2.02 0.625 3.06 0.66 0.33 1.32 0.66 2 1l-2 4h7v7c1.32 0.33 2.64 0.66 4 1h-3v4h-2v11c1.42-0.165 2.85-0.33 4.31-0.5 3.26-0.378 6.41-0.5 9.69-0.5l1 1c0.66 0.33 1.32 0.66 2 1v10h-4c-0.33 1.32-0.66 2.64-1 4h6v-7h3c1.26 2.91 2 4.8 2 8h2c0.713 1.66 1.42 3.33 2.13 4.99 0.563 1.3 1.14 2.6 1.73 3.89 1.53 3.37 2.13 5.34 2.13 9.12h2c1.6 3.51 2.22 6.14 2 10 0.99 0.33 1.98 0.66 3 1 0.33 2.31 0.66 4.62 1 7h-2v6c0.99 0.33 1.98 0.66 3 1-1.98 0.33-3.96 0.66-6 1v6h4v4h2v4h3v9h3v6c-0.66 0.33-1.32 0.66-2 1v10h4c1.48 2.96 1.06 5.74 1 9h2c-0.33-2.31-0.66-4.62-1-7h4c0.33 5.94 0.66 11.9 1 18-0.33-0.99-0.66-1.98-1-3h-3c-0.66 3.63-1.32 7.26-2 11h-3v-6h2v-5h-2c-0.195 1.77-0.381 3.54-0.562 5.31-0.104 0.986-0.209 1.97-0.316 2.99-0.287 2.8-0.287 2.8 0.879 5.7-0.33 0.66-0.66 1.32-1 2-0.0601 1.37-0.0605 2.74-0.0273 4.11 0.0122 0.819 0.0245 1.64 0.0371 2.48 0.0348 1.71 0.0737 3.43 0.117 5.14 0.0688 5.18-0.433 9.36-2.13 14.3h-3c-0.33 3.3-0.66 6.6-1 10h-9c-0.33 2.97-0.66 5.94-1 9h-4c-0.33-2.31-0.66-4.62-1-7h-2v-3h3v-4h3v-11h-2c-0.33-3.96-0.66-7.92-1-12h1v5h8v-4h2c-0.57-5.35-1.21-10.7-2-16h-2c-2.02-5.1-2.41-9.72-2.62-15.1-0.0387-0.798-0.0773-1.6-0.117-2.42-0.255-5.45-0.276-10.8 0.242-16.2 0.0928-0.985 0.186-1.97 0.281-2.98 0.0722-0.748 0.144-1.5 0.219-2.27h-2c0.33-2.97 0.66-5.94 1-9h5v-6c-1.42 0.0309-1.42 0.0309-2.88 0.0625-3.12-0.0625-3.12-0.0625-5.12-1.06-0.312-2.55-0.513-5-0.625-7.56-0.058-1.07-0.058-1.07-0.117-2.15-0.0945-1.76-0.177-3.52-0.258-5.28h-3c-0.0606-1.3-0.121-2.6-0.184-3.95-0.0845-1.73-0.169-3.45-0.254-5.18-0.0393-0.856-0.0786-1.71-0.119-2.59-0.225-4.5-0.579-8.85-1.44-13.3h-2v-3h-4c-0.674-1.27-1.34-2.54-2-3.81-0.371-0.708-0.743-1.42-1.12-2.14-0.875-2.04-0.875-2.04-0.875-5.04-1.32-0.66-2.64-1.32-4-2v-7h-2v-2c-0.577-0.268-1.15-0.536-1.75-0.812-2.31-1.22-4.27-2.49-6.25-4.19v-2h-2c-0.33-0.66-0.66-1.32-1-2-0.99-0.33-1.98-0.66-3-1v-2h-2l-2-8c-1.98-0.495-1.98-0.495-4-1v-2h-2v-5h-2v-2h-4c-0.433-1.11-0.866-2.23-1.31-3.38-1.39-3.8-1.39-3.8-4.69-5.62v-2h-2c-0.33-0.66-0.66-1.32-1-2-1.49-0.495-1.49-0.495-3-1v-2c-0.619-0.0412-1.24-0.0825-1.88-0.125-0.701-0.289-1.4-0.577-2.12-0.875-1.12-3-1.12-3-2-6-0.66-0.33-1.32-0.66-2-1v-2c-1.65-0.33-3.3-0.66-5-1v-2c-0.592 0.0232-1.18 0.0464-1.79 0.0703-4.55 0.104-8.07 0.0668-12.2-2.07v-2h-2c-0.24-0.616-0.48-1.23-0.727-1.87-1.58-2.65-2.81-3.14-5.65-4.26-2.94-1.19-5.8-2.42-8.62-3.88h6v-3c-3.96-0.33-7.92-0.66-12-1v-3c-0.639-0.309-1.28-0.619-1.94-0.938-2.06-1.06-2.06-1.06-3.06-2.06-2.26-0.0721-4.51 0.00352-6.77 0.0625-2.23-0.0625-2.23-0.0625-5.23-1.06v-4h-5v-4c-1.28-0.0206-2.56-0.0412-3.88-0.0625-0.719-0.0116-1.44-0.0232-2.18-0.0352-2.03-0.0288-2.03-0.0288-3.95 1.1v4c-1.88-0.25-1.88-0.25-4-1-0.667-1.33-1.33-2.67-2-4-2.05-0.805-2.05-0.805-4-1v-2h-4v-2c-0.66-0.33-1.32-0.66-2-1h4v-2h-2v-2c-0.66-0.33-1.32-0.66-2-1h4v-4c3.58-1.24 6.34-0.749 10 0v11h2v2h6c-0.0116-0.736-0.0232-1.47-0.0352-2.23-0.00902-0.976-0.018-1.95-0.0273-2.96-0.0116-0.963-0.0232-1.93-0.0352-2.92 0.0928-2.75 0.477-5.22 1.1-7.89z" fill="#F9FCFD"/>
<path transform="translate(989,372)" d="m0 0h2v4h6c0.33-1.32 0.66-2.64 1-4 0.124 0.804 0.247 1.61 0.375 2.44 0.206 0.846 0.413 1.69 0.625 2.56l2 1v2c1.65 0.33 3.3 0.66 5 1 0.33 2.64 0.66 5.28 1 8h6v-4c1.32 0.33 2.64 0.66 4 1h-2v6h6v-4h3v5h5c0.66 2.97 1.32 5.94 2 9 3.96-0.495 3.96-0.495 8-1v7c2.64 0.33 5.28 0.66 8 1v7h6v-7h2v3h8l-2 1v12c2.64 0.33 5.28 0.66 8 1v6h2v2h6v6h2v2c3.46-0.495 3.46-0.495 7-1 0.495 3.47 0.495 3.47 1 7 2.64 0.33 5.28 0.66 8 1 0.495 3.47 0.495 3.47 1 7 1.98 0.33 3.96 0.66 6 1 0.495-1.98 0.495-1.98 1-4v5h-2v6h2v2h6v-5h4v7h-2v6h6c-0.33-0.99-0.66-1.98-1-3 0.33-0.66 0.66-1.32 1-2 0.577 0.165 1.15 0.33 1.75 0.5 2.52 0.645 2.52 0.645 6.25 0.5 1.06 1.88 1.06 1.88 2 4-0.33 0.66-0.66 1.32-1 2-0.66-0.33-1.32-0.66-2-1v2h2c1.62 1.5 1.62 1.5 3 3v-2c-0.66-0.33-1.32-0.66-2-1h4c0.66 1.65 1.32 3.3 2 5h-3c-0.33 1.32-0.66 2.64-1 4-0.33-1.32-0.66-2.64-1-4h-3v6h2v3h4v6h6v-3c1.32-0.33 2.64-0.66 4-1 0.33-1.65 0.66-3.3 1-5 0.33 1.32 0.66 2.64 1 4h2v-2-2h2c1.01 1.66 2.01 3.33 3 5 0.722 0.722 1.44 1.44 2.19 2.19 0.598 0.598 1.2 1.2 1.81 1.81v2h-9v4h-2v13h6v-3h2v8c4.95-0.33 9.9-0.66 15-1v5h-3v-2h-2v6h4v3h4v5c2.31-0.33 4.62-0.66 7-1 1.01 1.62 2 3.25 3 4.88 0.557 0.905 1.11 1.81 1.69 2.74 1.31 2.38 1.31 2.38 1.31 4.38 0.99 0.33 1.98 0.66 3 1 1.07 1.96 2.07 3.97 3 6 0.66 0.99 1.32 1.98 2 3v4h3c0.65 1.73 1.3 3.46 1.94 5.19 0.36 0.963 0.719 1.93 1.09 2.92 0.884 2.63 1.5 5.16 1.97 7.89h3v-5h1c-0.0825 0.969-0.165 1.94-0.25 2.94-0.0338 3.36 0.807 5.52 2.31 8.5 2.28 4.66 2.03 7.55 0.938 12.6h3v3h5v10h3v3h-5v5h-6v2h-2v-3h-2v-9h-2v-2h-2c-2-3-2-3-2-6h-2v-4c-1.98-0.33-3.96-0.66-6-1v-11h-2c-0.155-0.897-0.155-0.897-0.312-1.81-0.503-2.25-0.503-2.25-2.19-3.53-1.93-2.13-1.98-3.51-2.19-6.34-0.0986-1.21-0.0986-1.21-0.199-2.45-0.0374-0.615-0.0748-1.23-0.113-1.86h-3v-2h-2v-2h-2c-0.66-3.3-1.32-6.6-2-10-1.42 0.0309-1.42 0.0309-2.88 0.0625-3.12-0.0625-3.12-0.0625-5.12-1.06v-5h-2c-0.66-1.98-1.32-3.96-2-6h-2c-0.99-2.48-0.99-2.48-2-5h-2c-0.33-1.65-0.66-3.3-1-5-0.625-0.0838-1.25-0.168-1.89-0.254-2.11-0.746-2.11-0.746-3.12-2.52-0.223-0.713-0.446-1.43-0.676-2.16-0.346-1.07-0.346-1.07-0.699-2.15-0.202-0.63-0.405-1.26-0.613-1.91-0.33-0.66-0.66-1.32-1-2-0.99-0.33-1.98-0.66-3-1v-2h-2v-2h-2c-0.289-0.969-0.577-1.94-0.875-2.94-0.767-3.17-0.767-3.17-3.12-4.06v-2h-2v-7h-2v-2c-1.32-0.33-2.64-0.66-4-1v-5h-2c-1.44-1.5-1.44-1.5-3-3.44-2.15-2.71-2.15-2.71-5-4.56v-2h-2v-2h-2v-2h-2v-2h-2v-3h-2v-3c-1.98-0.66-3.96-1.32-6-2v-2h-2v-2h-2v-2c-0.804-0.248-1.61-0.495-2.44-0.75-2.56-1.25-2.56-1.25-3.38-3.38-0.0928-0.928-0.0928-0.928-0.188-1.88h-2v-2h-2v-2c-1.98-0.495-1.98-0.495-4-1v-3h-2c-2.12-1.88-2.12-1.88-4-4v-2h-2v-2h-2c-1.35-1.31-2.69-2.65-4-4-0.66-0.33-1.32-0.66-2-1v-3h-2v-3c-0.619-0.309-1.24-0.619-1.88-0.938l-4.12-2.06v-2h-2v-2c-0.619-0.309-1.24-0.619-1.88-0.938l-4.12-2.06v-2h-8c-0.33-0.66-0.66-1.32-1-2-2.31-0.731-4.65-1.4-7-2v-2h-5c0.33-2.31 0.66-4.62 1-7-0.763-0.144-1.53-0.289-2.31-0.438-2.69-0.562-2.69-0.562-5.69-1.56-1.19-3.06-1.19-3.06-2-6h-10v-2h-2v-2c-1.32-0.33-2.64-0.66-4-1v-2h-2c-0.33-1.32-0.66-2.64-1-4-1.65-0.33-3.3-0.66-5-1v-3c-0.928-0.155-0.928-0.155-1.88-0.312-2.12-0.688-2.12-0.688-4.12-3.69-0.125-2.69-0.125-2.69 0-5z" fill="#F9FCFD"/>
<path transform="translate(1202,801)" d="m0 0h6v11h4v30h-4v12h4v6h-4v7h-2v2h-6v-25h2v-16h-2v-7h2v-20z" fill="#FCFDFF"/>
<path transform="translate(709,892)" d="m0 0v7h-4v3h4v7c-3.96 0.495-3.96 0.495-8 1v12c-3.98 0.995-7.17 1.1-11.2 1.06-1.26-0.00902-2.53-0.018-3.83-0.0273-0.964-0.0116-1.93-0.0232-2.92-0.0352v-6h4v-2h8v-7h-2v4h-6v-10h8v-9c4.72-0.652 9.22-1.12 14-1z" fill="#FCFDFF"/>
<path transform="translate(1181,1061)" d="m0 0h1c0.33 3.63 0.66 7.26 1 11h6v-10h1v6h6v7h-2v2h-2v6c-1.98 0.66-3.96 1.32-6 2v10c-3.46-0.495-3.46-0.495-7-1v-4h-2v-12h-7v12h-1v-10h-4v-2h2v-2h10v-5h3c0.33-3.3 0.66-6.6 1-10z" fill="#F9FCFD"/>
<path transform="translate(1205,1026)" d="m0 0c0.33 0.66 0.66 1.32 1 2h6v15h-2v11h-5c-0.33 4.29-0.66 8.58-1 13h-7c-0.121-0.855-0.242-1.71-0.367-2.59-0.168-1.1-0.335-2.21-0.508-3.35-0.244-1.65-0.244-1.65-0.492-3.34-0.209-0.898-0.418-1.8-0.633-2.72-0.66-0.33-1.32-0.66-2-1v-8h-4v-4h2v3h4v7h6v-8h-4v-4c4.45-0.495 4.45-0.495 9-1 0.0206-1.4 0.0412-2.81 0.0625-4.25 0.0116-0.789 0.0232-1.58 0.0352-2.39-0.0938-2.27-0.465-4.19-1.1-6.36z" fill="#F9FCFD"/>
<path transform="translate(948,1231)" d="m0 0h6v10h-3v4c-3.09 1.76-4.23 2-8 2v2h-5v2h-3v6h-5v2h-6v6h-6v-8h4v-4h2v-2h8v-6h5c0.0412-0.619 0.0825-1.24 0.125-1.88 0.433-1.05 0.433-1.05 0.875-2.12 3.06-1.25 3.06-1.25 6-2v-2h4v-6z" fill="#FCFDFF"/>
<path transform="translate(719,858)" d="m0 0h6v15h4c0.027 1.62 0.0464 3.25 0.0625 4.88 0.0116 0.905 0.0232 1.81 0.0352 2.74-0.0977 2.38-0.0977 2.38-1.1 4.38-3.63-0.33-7.26-0.66-11-1v10h-6v-12h4v-4c3.96-0.495 3.96-0.495 8-1v-2h-4v-17z" fill="#FCFDFF"/>
<path transform="translate(1044,1117)" d="m0 0h6v6h-2c-0.33 1.32-0.66 2.64-1 4 0.99 0.33 1.98 0.66 3 1v9h-8v2h-6v-20h8v-2z" fill="#FCFDFF"/>
<path transform="translate(523,568)" d="m0 0c4.46 0.99 4.46 0.99 9 2v2h4v3h-2c0.0412 0.908 0.0825 1.82 0.125 2.75-0.12 3.13-0.516 4.64-2.12 7.25h-6v2h-3c-0.66-1.98-1.32-3.96-2-6h-3v-2h-3c-0.363-1.29-0.715-2.58-1.06-3.88-0.296-1.08-0.296-1.08-0.598-2.18-0.34-1.95-0.34-1.95 0.66-3.95h2v4c2.05-1.84 2.05-1.84 3-4h2v4h2v-5z" fill="#F9FCFD"/>
<path transform="translate(1191,672)" d="m0 0h6v4h6v12h6v6h-2v2h-4v5h-6v-23h-6v-6z" fill="#FCFDFF"/>
<path transform="translate(1145,758)" d="m0 0h6v36h-6v-36z" fill="#FCFDFF"/>
<path transform="translate(1159,1096)" d="m0 0h3v3h-4v8h4v2c5.44-0.99 5.44-0.99 11-2v-7h7c0.365 7.42 0.365 7.42-1.25 10-1.75 1-1.75 1-5.75 1-0.33 1.32-0.66 2.64-1 4h-2v3h-2c-0.33 0.66-0.66 1.32-1 2-0.66-0.33-1.32-0.66-2-1v-2h-5v-7h-3v-11c-0.66-0.33-1.32-0.66-2-1h4v-2z" fill="#F9FCFD"/>
<path transform="translate(1137,868)" d="m0 0h6v16h-4c0.0206 0.969 0.0412 1.94 0.0625 2.94-0.0625 3.06-0.0625 3.06-1.06 4.06h-6v-18h5v-5z" fill="#FCFDFF"/>
<path transform="translate(975,1266)" d="m0 0h6v3h4v6h-4v4h5v6c-1.73-0.142-3.46-0.289-5.19-0.438-1.44-0.122-1.44-0.122-2.92-0.246-2.68-0.293-5.26-0.743-7.89-1.32v-8h9v-3h-4v-6z" fill="#FCFDFF"/>
<path transform="translate(1132,897)" d="m0 0h6c1.28 2.57 1.13 4.45 1.12 7.31 0.00258 0.945 0.00516 1.89 0.00781 2.86-0.128 2.72-0.573 5.17-1.13 7.82-0.0377 2-0.0465 4 0 6h-6v-4h-4v-9h4v-11z" fill="#FCFDFF"/>
<path transform="translate(1217 1e3)" d="m0 0c1.32 0.33 2.64 0.66 4 1v3c0.784 0.144 1.57 0.289 2.38 0.438 2.62 0.562 2.62 0.562 4.62 1.56-1.88 6.88-1.88 6.88-3 8-2.33 0.0409-4.67 0.0424-7 0v3c-0.99-0.33-1.98-0.66-3-1-0.33-1.98-0.66-3.96-1-6h-12v4h-3v-6c0.641 0.0116 1.28 0.0232 1.94 0.0352 5.15 0.0537 9.99-0.153 15.1-1.04 0.33-2.31 0.66-4.62 1-7z" fill="#F9FCFD"/>
<path transform="translate(1237,980)" d="m0 0v7h-3c0.34 1.49 0.34 1.49 0.688 3 0.698 4.61-0.845 7.8-2.69 12h-1c-0.66-2.97-1.32-5.94-2-9h-3c-1.28-3.85-1.07-6.95-1-11h-4v-2c5.69-0.914 10.3-0.914 16 0z" fill="#F9FCFD"/>
<path transform="translate(1030,1141)" d="m0 0h6c-0.141 1.63-0.288 3.25-0.438 4.88-0.0812 0.905-0.162 1.81-0.246 2.74-0.316 2.38-0.316 2.38-1.32 4.38h-7c0.0206 0.804 0.0412 1.61 0.0625 2.44-0.0625 2.56-0.0625 2.56-1.06 3.56-2 0.0408-4 0.0425-6 0v-10h5c0.33-1.32 0.66-2.64 1-4h2v-2h2v-2z" fill="#FCFDFF"/>
<path transform="translate(830,1315)" d="m0 0h14v6h-8c-0.66 1.98-1.32 3.96-2 6h-10c-0.337-3.7-0.477-5.4 1.88-8.38 2.12-1.62 2.12-1.62 4.12-1.62v-2z" fill="#FCFDFF"/>
<path transform="translate(742,858)" d="m0 0h3v2h3c0.33 2.97 0.66 5.94 1 9h6c-0.506 2.17-1 4-2 6h-5v2c-3.77 1.26-5.37 0.371-9-1v-6c-0.66-0.33-1.32-0.66-2-1h6c-0.33-3.63-0.66-7.26-1-11z" fill="#F9FCFD"/>
<path transform="translate(735,766)" d="m0 0h6v21h-8v-16h2v-5z" fill="#FCFDFF"/>
<path transform="translate(996,422)" d="m0 0h14v7c-0.99 0.33-1.98 0.66-3 1v6h-6v-3h-4c-0.33-3.63-0.66-7.26-1-11z" fill="#FCFDFF"/>
<path transform="translate(1151,825)" d="m0 0v12h-5v4h-6v-15c5-1 5-1 11-1z" fill="#FCFDFF"/>
<path transform="translate(420,633)" d="m0 0h6v6h-3v7h-3v3h-6v-3h-2v-6c1.32-0.33 2.64-0.66 4-1v-2h4v-4z" fill="#FCFDFF"/>
<path transform="translate(659,941)" d="m0 0h10v6h-2v6h-6v3h-6v-6h6v-3h-2v-6z" fill="#FCFDFF"/>
<path transform="translate(860,1296)" d="m0 0h6v3h2v6h-5v2h-11v-7c2.64-0.33 5.28-0.66 8-1v-3z" fill="#FCFDFF"/>
<path transform="translate(764,279)" d="m0 0c1.94 0.0872 3.88 0.195 5.81 0.312 1.62 0.087 1.62 0.087 3.27 0.176 3.1 0.543 4.13 0.973 5.92 3.51v2c0.959 2.33 0.959 2.33 4 4-3 2-3 2-5.82 1.82-3.4-0.874-6.01-2.13-9.05-3.88l-2.93-1.66c-0.724-0.422-1.45-0.843-2.2-1.28 0.33-1.65 0.66-3.3 1-5z" fill="#F9FCFD"/>
<path transform="translate(725,740)" d="m0 0h6v6h2v6h-2v7h-6v-19z" fill="#FCFDFF"/>
<path transform="translate(1104,493)" d="m0 0c0.33 0.66 0.66 1.32 1 2h2c-0.33 3.3-0.66 6.6-1 10h6v-5c0.33 0.99 0.66 1.98 1 3h2v4h4v3h-4v2h-5v-2h-6v2h-2v-10h3c-0.33-2.97-0.66-5.94-1-9z" fill="#F9FCFD"/>
<path transform="translate(1e3 1173)" d="m0 0h6v9h-6v7c-2.71 1.35-5.01 1.07-8 1v-9h8v-8z" fill="#FCFDFF"/>
<path transform="translate(612,971)" d="m0 0h11c0.879 6.93 0.879 6.93 1 9-1 1-1 1-3.72 1.1-1.65-0.0174-1.65-0.0174-3.34-0.0352-1.1-0.00902-2.21-0.018-3.35-0.0273-1.28-0.0174-1.28-0.0174-2.59-0.0352 0.33-3.3 0.66-6.6 1-10z" fill="#FCFDFF"/>
<path transform="translate(1031,1221)" d="m0 0h6v3h2v6h6v6h-10v-6h-2v-3h-2v-6z" fill="#FCFDFF"/>
<path transform="translate(749,686)" d="m0 0c2.48 0.495 2.48 0.495 5 1v6h2c2 3 2 3 2 7h2c0.934 3.01 1.04 3.87 0 7h2c0.66 2.31 1.32 4.62 2 7h2c0.66 3.3 1.32 6.6 2 10l-2 1c-0.289-0.969-0.577-1.94-0.875-2.94-0.767-3.17-0.767-3.17-3.12-4.06-1.45-3.61-2-6.07-2-10h-2c-0.266-0.759-0.531-1.52-0.805-2.3-0.53-1.49-0.53-1.49-1.07-3.01-0.522-1.48-0.522-1.48-1.05-2.99-1.02-2.86-1.02-2.86-3.07-5.7v-4h-2c-0.33-1.32-0.66-2.64-1-4z" fill="#FCFDFF"/>
<path transform="translate(581 568)" d="m0 0c1.1 0.102 2.19 0.204 3.32 0.309 0.843 0.0838 1.69 0.168 2.55 0.254v2h2v10c-2.31-0.66-4.62-1.32-7-2v-2c-0.763 0.0619-1.53 0.124-2.31 0.188-2.69-0.188-2.69-0.188-4.5-1.69-0.392-0.495-0.784-0.99-1.19-1.5h8v-2c-0.742 0.0619-1.49 0.124-2.25 0.188-3.2-0.218-4.39-1.09-6.75-3.19 2.84-1.42 4.99-0.863 8.12-0.562z" fill="#F9FCFD"/>
<path transform="translate(1095,1170)" d="m0 0h6v18h-6v-18z" fill="#FCFDFF"/>
<path transform="translate(987,450)" d="m0 0c4.58 3.57 8.11 7.32 11.6 11.9 0.464 0.595 0.928 1.19 1.41 1.8 2.18 2.81 4.25 5.65 6.18 8.64 1.53 2.69 1.53 2.69 3.79 3.62v-2c0.99 0.33 1.98 0.66 3 1-0.33 2.64-0.66 5.28-1 8h-2c-1.59-1.95-1.59-1.95-3.5-4.69-2.35-3.34-4.72-6.63-7.25-9.83-0.457-0.58-0.914-1.16-1.38-1.76-0.9-1.14-1.8-2.27-2.71-3.39-3.15-4-3.15-4-3.15-7.33h-2v-2h-2c-0.33-1.32-0.66-2.64-1-4z" fill="#F9FCFD"/>
<path transform="translate(1132,694)" d="m0 0h6v4h5v11h-6v-9h-5v-6z" fill="#FCFDFF"/>
<path transform="translate(1103,1165)" d="m0 0h6v5h4c-0.33 3.3-0.66 6.6-1 10h-6c0.33-2.97 0.66-5.94 1-9h-4v-6z" fill="#FCFDFF"/>
<path transform="translate(1031,514)" d="m0 0c4.53 3.14 6.58 6.16 9 11v2h2c0.268 0.598 0.536 1.2 0.812 1.81 1.04 2.23 1.04 2.23 2.81 3.56 2.06 2.43 1.58 4.56 1.38 7.62l4 2c-1.32 0.33-2.64 0.66-4 1-3.19-3.71-5.33-7.41-7.44-11.8-1.99-4.11-4.02-8.1-6.5-11.9-2.06-3.25-2.06-3.25-2.06-5.25z" fill="#F9FCFD"/>
<path transform="translate(527,1352)" d="m0 0c0.66 0.99 1.32 1.98 2 3 3.56 1.22 3.56 1.22 7 2-0.99 0.66-1.98 1.32-3 2l1 2c-2.27-0.45-4.54-0.911-6.81-1.38-1.9-0.383-1.9-0.383-3.83-0.773-3.36-0.852-3.36-0.852-6.36-2.85 0.375-1.94 0.375-1.94 1-4 3.15-1.57 5.64-0.719 9 0z" fill="#F9FCFD"/>
<path transform="translate(951,1281)" d="m0 0h6v11h-6v-3h-4v-6h4v-2z" fill="#FCFDFF"/>
<path transform="translate(881,1325)" d="m0 0v7h-13v-6c4.39-0.857 8.53-1.09 13-1z" fill="#FCFDFF"/>
<path transform="translate(1012,1160)" d="m0 0h6v11h-9v-6h3v-5z" fill="#FCFDFF"/>
<path transform="translate(1141,1116)" d="m0 0h13v8c0.99 0.33 1.98 0.66 3 1h-9v-4h-3v-2h-4v-3z" fill="#F9FCFD"/>
<path transform="translate(1109,788)" d="m0 0c1.48 0.99 1.48 0.99 3 2 0.547 3.09 0.547 3.09 0.75 6.94 0.036 0.667 0.072 1.33 0.109 2.02 0.253 5.74-0.09 11.3-0.859 17h-2c-1.06-3.18-1.11-5.43-1.1-8.76 0.00322-1.12 0.00645-2.24 0.00977-3.39 0.00838-1.17 0.0168-2.33 0.0254-3.54 0.00677-1.77 0.00677-1.77 0.0137-3.57 0.0118-2.91 0.0283-5.83 0.0488-8.74z" fill="#F9FCFD"/>
<path transform="translate(895 1319)" d="m0 0c1.13 0.0206 2.27 0.0412 3.44 0.0625v4h2v6h-7v-3h-3c-0.0425-2-0.0408-4 0-6 1-1 1-1 4.56-1.06z" fill="#FCFDFF"/>
<path transform="translate(940,1291)" d="m0 0h6c1 3.01 1.1 5.04 1.06 8.19-0.00902 0.901-0.018 1.8-0.0273 2.73-0.0116 0.687-0.0232 1.37-0.0352 2.08h-6c-0.33-4.29-0.66-8.58-1-13z" fill="#FCFDFF"/>
<path transform="translate(892,1275)" d="m0 0h11v6h-5v2h-6v-8z" fill="#FCFDFF"/>
<path transform="translate(514,986)" d="m0 0h12v6c-1.62 0.195-3.25 0.381-4.88 0.562-0.905 0.104-1.81 0.209-2.74 0.316-2.38 0.121-2.38 0.121-4.38-0.879v-6z" fill="#FCFDFF"/>
<path transform="translate(1136,595)" d="m0 0h6v13h-6v-13z" fill="#FCFDFF"/>
<path transform="translate(1140,842)" d="m0 0h6v12h-6v-12z" fill="#FCFDFF"/>
<path transform="translate(1167,604)" d="m0 0h6v4h6v6h-6v-4h-6v-6z" fill="#FCFDFF"/>
<path transform="translate(392,917)" d="m0 0h6v7c-3.3 0.33-6.6 0.66-10 1v-6h4v-2z" fill="#FCFDFF"/>
<path transform="translate(683,659)" d="m0 0h6v5h2v6h-6v-5h-2v-6z" fill="#FCFDFF"/>
<path transform="translate(758,696)" d="m0 0c2.74 2.37 3.93 4.55 5 8 0.125 2.81 0.125 2.81 0 5h2c1.86 3.13 2.2 5.37 2 9 0.99 0.33 1.98 0.66 3 1 0.33 2.31 0.66 4.62 1 7-0.99 0.33-1.98 0.66-3 1-1.45-4.54-2.24-8.18-2-13h-2c-1.46-2.65-2-3.89-2-7h-2v-7h-2v-4z" fill="#F9FCFD"/>
<path transform="translate(1207,938)" d="m0 0h6v11h-6v-11z" fill="#FCFDFF"/>
<path transform="translate(1080,467)" d="m0 0v6c-3.3 0.33-6.6 0.66-10 1v-6c3.38-1.04 6.48-1.08 10-1z" fill="#FCFDFF"/>
<path transform="translate(942,353)" d="m0 0h8v8c-5.75 0.125-5.75 0.125-8-1v-7z" fill="#FCFDFF"/>
<path transform="translate(547,556)" d="m0 0c2.46-0.0269 4.92-0.0468 7.38-0.0625 0.699-0.00838 1.4-0.0168 2.12-0.0254 5.28-0.0254 5.28-0.0254 7.51 1.09v2c-2.57 1.28-4.45 1.13-7.31 1.12-0.945 0.00258-1.89 0.00516-2.86 0.00781-2.71-0.127-5.18-0.527-7.82-1.13 0.33-0.99 0.66-1.98 1-3z" fill="#F9FCFD"/>
<path transform="translate(908,1310)" d="m0 0h9v6c-4.46 0.495-4.46 0.495-9 1v-7z" fill="#FCFDFF"/>
<path transform="translate(844,1307)" d="m0 0h8v6h-2v2h-6v-8z" fill="#FCFDFF"/>
<path transform="translate(1079,1195)" d="m0 0h6v10h-6v-10z" fill="#FCFDFF"/>
<path transform="translate(1115,1141)" d="m0 0h10v6h-10v-6z" fill="#FCFDFF"/>
<path transform="translate(703,878)" d="m0 0h6v10h-6v-10z" fill="#FCFDFF"/>
<path transform="translate(348,814)" d="m0 0h6v10h-6v-10z" fill="#FCFDFF"/>
<path transform="translate(1128,586)" d="m0 0h10v6h-10v-6z" fill="#FCFDFF"/>
<path transform="translate(930,1299)" d="m0 0h6v9h-6v-9z" fill="#FCFDFF"/>
<path transform="translate(1053,1222)" d="m0 0h8v7c-5.75 0.125-5.75 0.125-8-1v-6z" fill="#FCFDFF"/>
<path transform="translate(980,1199)" d="m0 0h6v9h-6v-9z" fill="#FCFDFF"/>
<path transform="translate(642,930)" d="m0 0h9v6h-9v-6z" fill="#FCFDFF"/>
<path transform="translate(1207,716)" d="m0 0h6v9h-6v-9z" fill="#FCFDFF"/>
<path transform="translate(396,653)" d="m0 0h6v9h-6v-9z" fill="#FCFDFF"/>
<path transform="translate(966,425)" d="m0 0c1.82 0.874 3.63 1.78 5.44 2.69 1.01 0.499 2.02 0.998 3.06 1.51 2.5 1.8 2.5 1.8 3.25 4.36 0.124 1.21 0.124 1.21 0.25 2.44 1.47 2.26 1.47 2.26 3 4-0.33 0.66-0.66 1.32-1 2-1.59-1.56-3.17-3.12-4.75-4.69-0.882-0.87-1.76-1.74-2.67-2.64-6.58-6.83-6.58-6.83-6.58-9.68z" fill="#F9FCFD"/>
<path transform="translate(717,703)" d="m0 0v6c-2.71 1.35-5.01 1.07-8 1v-6c2.71-1.35 5.01-1.07 8-1z" fill="#FCFDFF"/>
<path transform="translate(1189,659)" d="m0 0c5.75-0.125 5.75-0.125 8 1v6c-5.75 0.125-5.75 0.125-8-1v-6z" fill="#FCFDFF"/>
<path transform="translate(1015,410)" d="m0 0v6c-2.71 1.35-5.01 1.07-8 1v-6c2.71-1.35 5.01-1.07 8-1z" fill="#FCFDFF"/>
<path transform="translate(417,969)" d="m0 0h7v7h-6c-0.33 0.66-0.66 1.32-1 2v-9z" fill="#FCFDFF"/>
<path transform="translate(921,363)" d="m0 0c3.96 0.33 7.92 0.66 12 1 0.33 0.99 0.66 1.98 1 3-5.23 1.21-9.77 0.756-15 0 0.66-1.32 1.32-2.64 2-4z" fill="#F9FCFD"/>
<path transform="translate(896,317)" d="m0 0h3v3c1.98 0.66 3.96 1.32 6 2v2c-4.5 1.76-8.18 2.19-13 2 1.32-0.33 2.64-0.66 4-1v-8z" fill="#F9FCFD"/>
<path transform="translate(1241,941)" d="m0 0h4v4h2v2c-3.21 1.61-6.44 1.06-10 1v-4h3c0.33-0.99 0.66-1.98 1-3z" fill="#F9FCFD"/>
<path transform="translate(1052,552)" d="m0 0h2c3.23 3.44 4.64 6.53 6 11 0.99 1.49 0.99 1.49 2 3v4h-2c-3-5.75-3-5.75-3-8h-2c-3-6.62-3-6.62-3-10z" fill="#F9FCFD"/>
<path transform="translate(1263,883)" d="m0 0h1v8h2v10c-0.99 0.33-1.98 0.66-3 1-1.11-3.57-1.13-6.91-1.12-10.6-0.00258-1.15-0.00516-2.29-0.00781-3.48 0.133-2.9 0.133-2.9 1.13-4.9z" fill="#F9FCFD"/>
<path transform="translate(733,1350)" d="m0 0h11v3c-1.81 1.75-1.81 1.75-4 3-0.99-0.33-1.98-0.66-3-1h-2-2v-5z" fill="#FCFDFF"/>
<path transform="translate(965,1286)" d="m0 0h8v6h-8v-6z" fill="#FCFDFF"/>
<path transform="translate(1111,1158)" d="m0 0h6v8h-6v-8z" fill="#FCFDFF"/>
<path transform="translate(1080,475)" d="m0 0h8v6h-8v-6z" fill="#FCFDFF"/>
<path transform="translate(676 1371)" d="m0 0c0.799 0.018 1.6 0.0361 2.42 0.0547 0.603 0.0232 1.21 0.0464 1.83 0.0703v4c-4.62 0.33-9.24 0.66-14 1 1-3 1-3 2.77-4.18 2.49-0.915 4.34-1.02 6.98-0.945z" fill="#F9FCFD"/>
<path transform="translate(319,842)" d="m0 0h2c0.33 1.65 0.66 3.3 1 5h1c0.33 3.63 0.66 7.26 1 11h-2c-0.703-1.72-1.39-3.45-2.06-5.19-0.383-0.963-0.766-1.93-1.16-2.92-0.834-3.1-0.664-4.84 0.223-7.89z" fill="#EEF1F2"/>
<path transform="translate(673,607)" d="m0 0h2v2h2v7h-6v-6h2v-3z" fill="#FCFDFF"/>
<path transform="translate(701,1355)" d="m0 0h7v6h-7v-6z" fill="#FCFDFF"/>
<path transform="translate(937,1308)" d="m0 0h6v7h-6v-7z" fill="#FCFDFF"/>
<path transform="translate(1031,1239)" d="m0 0h6v7h-6v-7z" fill="#FCFDFF"/>
<path transform="translate(1167,1050)" d="m0 0h6v7h-6v-7z" fill="#FCFDFF"/>
<path transform="translate(687,926)" d="m0 0h6v7h-6v-7z" fill="#FCFDFF"/>
<path transform="translate(727,732)" d="m0 0h6v7h-6v-7z" fill="#FCFDFF"/>
<path transform="translate(1194,715)" d="m0 0h6v7h-6v-7z" fill="#FCFDFF"/>
<path transform="translate(388,663)" d="m0 0h6v7h-6v-7z" fill="#FCFDFF"/>
<path transform="translate(1020,446)" d="m0 0h6v7h-6v-7z" fill="#FCFDFF"/>
<path transform="translate(353,914)" d="m0 0h2c0.544 3.06 1 5.89 1 9 0.33 0.99 0.66 1.98 1 3h-2v-2h-2c-0.33-1.32-0.66-2.64-1-4h-2c-0.33-1.32-0.66-2.64-1-4h3l1-2z" fill="#F9FCFD"/>
<path transform="translate(1224,628)" d="m0 0h2v2h3c0.33 2.97 0.66 5.94 1 9h-4c-0.66-3.63-1.32-7.26-2-11z" fill="#F9FCFD"/>
<path transform="translate(1262,821)" d="m0 0c2.66 2.66 2.94 4.65 3.1 8.36-0.0116 0.789-0.0232 1.58-0.0352 2.39-0.00902 0.799-0.018 1.6-0.0273 2.42-0.0174 0.905-0.0174 0.905-0.0352 1.83h-3v-15z" fill="#FCFDFF"/>
<path transform="translate(1215,600)" d="m0 0c0.99 0.33 1.98 0.66 3 1v9h3v3h-4v-5h-2v-8z" fill="#F9FCFD"/>
<path transform="translate(1071,1205)" d="m0 0h6v6h-6v-6z" fill="#FCFDFF"/>
<path transform="translate(1095,1154)" d="m0 0h6v6h-6v-6z" fill="#FCFDFF"/>
<path transform="translate(1122,1100)" d="m0 0h6v6h-6v-6z" fill="#FCFDFF"/>
<path transform="translate(1183,1017)" d="m0 0h6v6h-6v-6z" fill="#FCFDFF"/>
<path transform="translate(602,974)" d="m0 0h6v6h-6v-6z" fill="#FCFDFF"/>
<path transform="translate(1215,949)" d="m0 0h6v6h-6v-6z" fill="#FCFDFF"/>
<path transform="translate(404,906)" d="m0 0h6v6h-6v-6z" fill="#FCFDFF"/>
<path transform="translate(1200,878)" d="m0 0h6v6h-6v-6z" fill="#FCFDFF"/>
<path transform="translate(1136,793)" d="m0 0h6v6h-6v-6z" fill="#FCFDFF"/>
<path transform="translate(1145,751)" d="m0 0h6v6h-6v-6z" fill="#FCFDFF"/>
<path transform="translate(1198,730)" d="m0 0h6v6h-6v-6z" fill="#FCFDFF"/>
<path transform="translate(719,719)" d="m0 0h6v6h-6v-6z" fill="#FCFDFF"/>
<path transform="translate(655,639)" d="m0 0h6v6h-6v-6z" fill="#FCFDFF"/>
<path transform="translate(648,639)" d="m0 0h6v6h-6v-6z" fill="#FCFDFF"/>
<path transform="translate(444,627)" d="m0 0h6v6h-6v-6z" fill="#FCFDFF"/>
<path transform="translate(430,627)" d="m0 0h6v6h-6v-6z" fill="#FCFDFF"/>
<path transform="translate(607,616)" d="m0 0h6v6h-6v-6z" fill="#FCFDFF"/>
<path transform="translate(550,591)" d="m0 0h6v6h-6v-6z" fill="#FCFDFF"/>
<path transform="translate(1151,581)" d="m0 0h6v6h-6v-6z" fill="#FCFDFF"/>
<path transform="translate(1120,542)" d="m0 0h6v6h-6v-6z" fill="#FCFDFF"/>
<path transform="translate(1044,482)" d="m0 0h6v6h-6v-6z" fill="#FCFDFF"/>
<path transform="translate(992,403)" d="m0 0h6v6h-6v-6z" fill="#FCFDFF"/>
<path transform="translate(984,399)" d="m0 0h6v6h-6v-6z" fill="#FCFDFF"/>
<path transform="translate(917,335)" d="m0 0h6v6h-6v-6z" fill="#FCFDFF"/>
<path transform="translate(1229,851)" d="m0 0h5v7h-5v-7z" fill="#F9FCFD"/>
<path transform="translate(775,818)" d="m0 0h1c0.103 5.13 0.0359 9.95-1 15-1.32-0.33-2.64-0.66-4-1 0.33-1.98 0.66-3.96 1-6h3v-8z" fill="#F9FCFD"/>
<path transform="translate(942,400)" d="m0 0c8.21 4.49 8.21 4.49 10 10 2 1.21 2 1.21 4 2 0.33 0.66 0.66 1.32 1 2-4.48-1.41-6.83-3.59-10-7-0.928-0.887-1.86-1.77-2.81-2.69-2.19-2.31-2.19-2.31-2.19-4.31z" fill="#F9FCFD"/>
<path transform="translate(1018,494)" d="m0 0h2v2h3c0.33 0.99 0.66 1.98 1 3 0.66 0.33 1.32 0.66 2 1 0.625 3.06 0.625 3.06 1 6h-2c-1.73-2.37-1.73-2.37-3.62-5.44-0.632-1.01-1.26-2.02-1.91-3.06-1.46-2.5-1.46-2.5-1.46-3.5z" fill="#F9FCFD"/>
<path transform="translate(879,312)" d="m0 0c7.43 0.609 7.43 0.609 10 2.38 1 1.62 1 1.62 1 4.62h-2v-3c-2.97-0.33-5.94-0.66-9-1v-3z" fill="#F9FCFD"/>
<path transform="translate(855,304)" d="m0 0 10 2v2c-3.3 0.33-6.6 0.66-10 1v-5z" fill="#F9FCFD"/>
<path transform="translate(325,865)" d="m0 0c3.03 2.02 3.67 2.81 5.19 5.94 0.516 1.03 0.516 1.03 1.04 2.09 0.77 1.97 0.77 1.97 0.77 4.97h-2c-0.33-1.32-0.66-2.64-1-4h-2c-0.66-2.97-1.32-5.94-2-9z" fill="#F9FCFD"/>
<path transform="translate(573,1009)" d="m0 0h10v3h-11c0.33-0.99 0.66-1.98 1-3z" fill="#F9FCFD"/>
<path transform="translate(1063,576)" d="m0 0c3.38 3.11 5.74 5.53 7 10v4h-2c-0.649-1.58-1.29-3.17-1.94-4.75-0.36-0.882-0.719-1.76-1.09-2.67-0.826-2.19-1.47-4.3-1.97-6.58z" fill="#F9FCFD"/>
<path transform="translate(718,1327)" d="m0 0c0.66 0.99 1.32 1.98 2 3-4.46 1.48-4.46 1.48-9 3 0.33-1.32 0.66-2.64 1-4 3.06-1.25 3.06-1.25 6-2z" fill="#F9FCFD"/>
<path transform="translate(699,1336)" d="m0 0c-2.71 2.6-3.89 2.99-7.75 3.19-1.07-0.0619-2.14-0.124-3.25-0.188v-2c3.77-2.56 6.67-1.83 11-1z" fill="#F9FCFD"/>
<path transform="translate(744,682)" d="m0 0h1v7h-6v-5c2.48 0.495 2.48 0.495 5 1v-3z" fill="#FCFDFF"/>
<path transform="translate(1259,896)" d="m0 0c0.33 0.99 0.66 1.98 1 3-0.99 1.49-0.99 1.49-2 3-2.62 0.188-2.62 0.188-5 0v-4c1.98-0.66 3.96-1.32 6-2z" fill="#FCFDFF"/>
<path transform="translate(484 1e3)" d="m0 0h5v3c1.32 0.33 2.64 0.66 4 1-0.33 1.32-0.66 2.64-1 4-0.557-0.639-1.11-1.28-1.69-1.94-2.53-2.26-4-2.69-7.31-3.06 0.33-0.99 0.66-1.98 1-3z" fill="#F9FCFD"/>
</svg>
